<svg xmlns="http://www.w3.org/2000/svg" xmlns:xlink="http://www.w3.org/1999/xlink" width="245" zoomAndPan="magnify" viewBox="0 0 183.75 183.750001" height="245" preserveAspectRatio="xMidYMid meet" version="1.0"><defs><g/><clipPath id="464514a09e"><path d="M 41.074219 30.425781 L 142.871094 30.425781 L 142.871094 133.273438 L 41.074219 133.273438 Z M 41.074219 30.425781 " clip-rule="nonzero"/></clipPath><clipPath id="49cb05efd4"><path d="M 77 14 L 87 14 L 87 35 L 77 35 Z M 77 14 " clip-rule="nonzero"/></clipPath><clipPath id="a56dddba5a"><path d="M 68.859375 23.429688 L 88.65625 0.3125 L 114.164062 22.15625 L 94.367188 45.273438 Z M 68.859375 23.429688 " clip-rule="nonzero"/></clipPath><clipPath id="504eddbc76"><path d="M 68.859375 23.429688 L 88.65625 0.3125 L 114.164062 22.15625 L 94.367188 45.273438 Z M 68.859375 23.429688 " clip-rule="nonzero"/></clipPath><clipPath id="beeccde64c"><path d="M 89 9 L 98 9 L 98 33 L 89 33 Z M 89 9 " clip-rule="nonzero"/></clipPath><clipPath id="1d5d3f78d4"><path d="M 68.859375 23.429688 L 88.65625 0.3125 L 114.164062 22.15625 L 94.367188 45.273438 Z M 68.859375 23.429688 " clip-rule="nonzero"/></clipPath><clipPath id="8cd7662437"><path d="M 68.859375 23.429688 L 88.65625 0.3125 L 114.164062 22.15625 L 94.367188 45.273438 Z M 68.859375 23.429688 " clip-rule="nonzero"/></clipPath><clipPath id="65d0f0bb60"><path d="M 96 18 L 111 18 L 111 34 L 96 34 Z M 96 18 " clip-rule="nonzero"/></clipPath><clipPath id="ceb2393960"><path d="M 68.859375 23.429688 L 88.65625 0.3125 L 114.164062 22.15625 L 94.367188 45.273438 Z M 68.859375 23.429688 " clip-rule="nonzero"/></clipPath><clipPath id="304f5461e9"><path d="M 68.859375 23.429688 L 88.65625 0.3125 L 114.164062 22.15625 L 94.367188 45.273438 Z M 68.859375 23.429688 " clip-rule="nonzero"/></clipPath><clipPath id="63a183dd2d"><path d="M 79.042969 133.273438 L 91.75 133.273438 L 91.75 147.179688 L 79.042969 147.179688 Z M 79.042969 133.273438 " clip-rule="nonzero"/></clipPath><clipPath id="6621bf6848"><path d="M 82 140 L 86 140 L 86 146 L 82 146 Z M 82 140 " clip-rule="nonzero"/></clipPath><clipPath id="9dfa3a3013"><path d="M 79.957031 142.640625 L 85.710938 135.921875 L 92.984375 142.15625 L 87.234375 148.871094 Z M 79.957031 142.640625 " clip-rule="nonzero"/></clipPath><clipPath id="5a24510c1b"><path d="M 79.957031 142.640625 L 85.710938 135.921875 L 92.984375 142.15625 L 87.234375 148.871094 Z M 79.957031 142.640625 " clip-rule="nonzero"/></clipPath><clipPath id="966ba05a29"><path d="M 85 138 L 89 138 L 89 146 L 85 146 Z M 85 138 " clip-rule="nonzero"/></clipPath><clipPath id="d1203d74ba"><path d="M 79.957031 142.640625 L 85.710938 135.921875 L 92.984375 142.15625 L 87.234375 148.871094 Z M 79.957031 142.640625 " clip-rule="nonzero"/></clipPath><clipPath id="d8ed89b1b7"><path d="M 79.957031 142.640625 L 85.710938 135.921875 L 92.984375 142.15625 L 87.234375 148.871094 Z M 79.957031 142.640625 " clip-rule="nonzero"/></clipPath><clipPath id="271023cf24"><path d="M 87 141 L 93 141 L 93 146 L 87 146 Z M 87 141 " clip-rule="nonzero"/></clipPath><clipPath id="34be0d3629"><path d="M 79.957031 142.640625 L 85.710938 135.921875 L 92.984375 142.15625 L 87.234375 148.871094 Z M 79.957031 142.640625 " clip-rule="nonzero"/></clipPath><clipPath id="c9b7fe1d6c"><path d="M 79.957031 142.640625 L 85.710938 135.921875 L 92.984375 142.15625 L 87.234375 148.871094 Z M 79.957031 142.640625 " clip-rule="nonzero"/></clipPath></defs><g clip-path="url(#464514a09e)"><path fill="#180303" d="M 142.664062 110.652344 C 142.304688 113.390625 140.691406 115.792969 138.652344 117.609375 C 136.597656 119.28125 134.289062 120.703125 131.75 121.496094 C 129.335938 122.394531 126.753906 122.644531 124.234375 122.957031 C 122.679688 123.042969 121.105469 123.210938 119.574219 122.894531 C 117.265625 126.238281 113.550781 128.285156 109.792969 129.644531 C 107.96875 130.230469 106.183594 130.898438 104.355469 131.441406 C 101.648438 132.527344 98.710938 132.675781 95.835938 132.652344 C 94.050781 132.632812 92.183594 132.277344 90.691406 131.296875 C 89.8125 132.171875 88.425781 132.339844 87.25 132.714844 C 85.425781 133.257812 83.492188 133.007812 81.6875 132.589844 C 79.171875 132.171875 76.691406 131.546875 74.195312 131.003906 C 71.089844 130.5 67.960938 129.8125 65.171875 128.347656 C 62.988281 127.136719 61.476562 125.070312 60.238281 122.957031 C 58.496094 119.96875 58.496094 116.398438 58.9375 113.097656 C 59.648438 106.847656 61.601562 100.769531 64.265625 95.085938 C 61.496094 94.332031 58.894531 92.933594 56.753906 91.011719 C 56.542969 90.78125 56.292969 90.53125 55.976562 90.28125 C 55.160156 89.464844 54.421875 88.566406 53.792969 87.605469 C 53.542969 87.167969 53.332031 86.707031 53.121094 86.226562 C 51.882812 87.355469 50.707031 88.835938 50.140625 90.738281 C 49.996094 91.21875 49.554688 91.511719 49.09375 91.511719 C 48.988281 91.511719 48.882812 91.492188 48.777344 91.46875 C 48.191406 91.304688 47.875 90.699219 48.042969 90.113281 C 48.863281 87.394531 50.605469 85.390625 52.34375 83.988281 C 51.988281 82.671875 51.757812 81.316406 51.609375 80.019531 C 48.902344 80.730469 45.441406 82.214844 43.214844 85.347656 C 43.003906 85.660156 42.667969 85.808594 42.3125 85.808594 C 42.101562 85.808594 41.871094 85.746094 41.683594 85.621094 C 41.179688 85.265625 41.074219 84.597656 41.410156 84.09375 C 44.117188 80.230469 48.316406 78.535156 51.421875 77.785156 C 51.359375 76.675781 51.359375 75.675781 51.378906 74.816406 C 48.796875 74.878906 45.734375 75.464844 43.152344 77.449219 C 42.941406 77.597656 42.710938 77.679688 42.480469 77.679688 C 42.144531 77.679688 41.828125 77.535156 41.621094 77.261719 C 41.242188 76.78125 41.347656 76.09375 41.808594 75.738281 C 44.914062 73.355469 48.527344 72.6875 51.507812 72.644531 C 51.527344 72.5 51.527344 72.433594 51.527344 72.433594 C 52.03125 69.613281 52.746094 66.816406 53.75 64.121094 C 53.164062 62.742188 53.144531 61.234375 52.996094 59.773438 C 52.847656 57.683594 52.679688 55.617188 52.511719 53.527344 C 52.367188 49.554688 51.652344 45.480469 52.785156 41.59375 C 53.457031 38.941406 55.914062 37 58.621094 36.726562 C 62.503906 36.308594 66.28125 37.769531 69.746094 39.359375 C 71.507812 40.214844 73.105469 41.40625 74.59375 42.640625 C 74.761719 42.890625 75.054688 42.660156 75.246094 42.578125 C 79.066406 40.59375 91.09375 35.492188 93.148438 35.410156 C 93.96875 35.390625 94.765625 35.996094 94.785156 36.832031 C 94.953125 38.1875 93.820312 39.191406 93.023438 40.152344 C 94.15625 40.445312 95.375 40.65625 96.527344 40.488281 C 101.523438 37.332031 106.371094 33.863281 111.851562 31.523438 C 113.632812 30.917969 115.585938 30.4375 117.476562 30.855469 C 119.492188 31.316406 120.414062 33.382812 121.023438 35.117188 C 121.945312 38.628906 122.574219 42.222656 122.640625 45.859375 C 122.972656 49.554688 122.617188 53.253906 122.871094 56.953125 C 122.871094 58.957031 123.644531 60.859375 123.941406 62.84375 C 124.234375 64.558594 124.949219 66.167969 125.179688 67.902344 C 125.261719 68.382812 125.472656 69.71875 125.683594 71.453125 C 128.472656 71.308594 131.769531 71.703125 134.8125 73.542969 C 135.335938 73.855469 135.484375 74.523438 135.167969 75.046875 C 134.960938 75.382812 134.601562 75.570312 134.226562 75.570312 C 134.035156 75.570312 133.824219 75.527344 133.65625 75.402344 C 131.140625 73.878906 128.328125 73.523438 125.914062 73.625 C 126.019531 74.628906 126.101562 75.675781 126.144531 76.71875 C 129.230469 77.21875 133.195312 78.515625 136.09375 81.816406 C 136.492188 82.277344 136.449219 82.964844 135.988281 83.363281 C 135.777344 83.550781 135.527344 83.636719 135.273438 83.636719 C 134.960938 83.636719 134.664062 83.507812 134.457031 83.257812 C 132.125 80.605469 128.871094 79.457031 126.207031 78.976562 C 126.207031 80.605469 126.101562 82.109375 125.828125 83.28125 C 127.527344 84.472656 129.1875 86.164062 130.195312 88.503906 C 130.425781 89.066406 130.175781 89.695312 129.605469 89.945312 C 129.460938 90.007812 129.3125 90.027344 129.1875 90.027344 C 128.769531 90.027344 128.347656 89.777344 128.179688 89.359375 C 127.445312 87.605469 126.1875 86.269531 124.882812 85.304688 C 124.296875 86.101562 123.644531 86.851562 122.972656 87.585938 C 120.351562 90.027344 117.097656 91.679688 113.84375 93.058594 C 114.285156 93.476562 114.558594 94 114.808594 94.542969 C 116.847656 99.011719 118.1875 103.777344 119.449219 108.519531 C 119.785156 109.835938 120.265625 111.152344 120.394531 112.511719 C 121.863281 111.738281 123.476562 111.214844 124.96875 110.484375 C 124.109375 109.105469 124.109375 107.390625 124.445312 105.867188 C 125.09375 103.023438 127.046875 100.582031 129.542969 99.117188 C 131.726562 97.988281 134.328125 98.011719 136.617188 98.804688 C 140.417969 99.910156 142.746094 103.902344 142.726562 107.726562 C 142.726562 108.644531 142.871094 109.667969 142.664062 110.652344 Z M 142.664062 110.652344 " fill-opacity="1" fill-rule="nonzero"/></g><path fill="#e08989" d="M 108.765625 41.46875 C 108.03125 42.285156 107.234375 43.035156 106.582031 43.933594 C 112.4375 46.085938 117.621094 50.246094 120.5625 55.78125 C 120.414062 55.070312 120.75 54.339844 120.75 53.628906 C 121.066406 51.917969 120.8125 50.183594 120.855469 48.46875 C 120.644531 44.519531 120.414062 40.550781 119.511719 36.683594 C 115.648438 35.597656 110.589844 39.734375 108.765625 41.46875 Z M 54.824219 47.214844 C 55.199219 51.832031 55.453125 56.449219 55.789062 61.046875 C 56.667969 59.125 58.011719 57.347656 59.335938 55.65625 C 61.265625 53.441406 63.09375 51.121094 65.253906 49.117188 C 62.125 46.441406 58.808594 43.851562 54.96875 42.261719 C 54.71875 43.894531 54.738281 45.566406 54.824219 47.214844 Z M 54.824219 47.214844 " fill-opacity="1" fill-rule="nonzero"/><path fill="#f6e5cb" d="M 130.65625 119.300781 C 130.636719 116.105469 128.703125 113.261719 126.25 111.339844 C 125.640625 111.96875 124.820312 112.21875 123.980469 112.40625 C 125.050781 113.828125 126.101562 115.3125 126.542969 117.046875 C 126.878906 118.027344 127.046875 119.175781 126.5625 120.160156 C 127.992188 120.160156 129.3125 119.59375 130.65625 119.300781 Z M 137.8125 102.125 C 136.722656 101.0625 135.085938 101.144531 133.65625 100.976562 C 130.867188 100.707031 128.222656 102.398438 126.753906 104.675781 C 125.914062 105.867188 125.515625 107.539062 126.164062 108.898438 C 127.863281 108.375 129.542969 107.121094 131.433594 107.558594 C 134.855469 108.1875 137.855469 110.921875 138.589844 114.351562 C 139.285156 112.699219 140.289062 111.070312 140.3125 109.210938 C 140.5 106.683594 139.976562 103.757812 137.8125 102.125 Z M 121.589844 78.621094 C 120.980469 78.683594 120.457031 78.222656 120.394531 77.636719 C 120.328125 77.03125 120.769531 76.511719 121.378906 76.445312 C 121.484375 76.425781 122.367188 76.363281 123.6875 76.425781 C 123.625 75.613281 123.542969 74.753906 123.4375 73.878906 C 121.398438 74.230469 120.015625 74.796875 119.992188 74.816406 C 119.425781 75.046875 118.796875 74.777344 118.566406 74.230469 C 118.335938 73.667969 118.585938 73.042969 119.15625 72.8125 C 119.300781 72.75 120.855469 72.121094 123.140625 71.726562 C 122.742188 69.175781 122.21875 66.648438 121.800781 64.765625 C 121.589844 63.722656 121.359375 62.675781 121.066406 61.632812 C 121.066406 61.613281 121.066406 61.589844 121.066406 61.589844 C 120.5625 59.855469 119.910156 58.183594 119.070312 56.597656 C 117.433594 53.589844 115.4375 50.683594 112.648438 48.59375 C 110.507812 47.195312 108.304688 45.710938 105.761719 45.210938 C 105.324219 45.148438 104.757812 45.042969 104.628906 44.519531 C 104.316406 43.808594 105.050781 43.308594 105.53125 42.933594 C 109.394531 38.816406 112.394531 36.871094 114.054688 35.996094 C 114.894531 35.554688 115.816406 35.285156 116.761719 35.179688 C 117.476562 35.117188 118.378906 35.054688 119.113281 35.136719 C 118.820312 34.199219 118 33.488281 117.035156 33.339844 C 116.824219 33.320312 116.613281 33.277344 116.40625 33.257812 C 113.171875 33.382812 110.382812 35.203125 107.714844 36.851562 C 105.28125 38.230469 103.035156 39.882812 100.746094 41.46875 C 101.207031 41.679688 101.878906 41.992188 102.445312 42.367188 C 102.992188 42.722656 102.636719 43.558594 102.007812 43.433594 C 95.226562 42.054688 96.316406 42.679688 92.875 42.222656 C 92.015625 42.179688 91.132812 42.242188 90.316406 41.929688 C 89.433594 41.574219 89.222656 40.214844 89.9375 39.609375 C 90.398438 39.023438 91.363281 38.984375 91.742188 38.378906 C 88.238281 39.066406 85.214844 41.136719 81.816406 42.117188 C 77.429688 43.851562 72.539062 44.9375 69.03125 48.300781 C 68.277344 48.113281 68.527344 47.046875 68.96875 46.652344 C 70.101562 45.542969 71.761719 44.917969 72.640625 43.644531 C 68.339844 41.554688 63.804688 39.777344 59 39.378906 C 58.035156 39.316406 56.984375 39.191406 56.082031 39.609375 C 55.660156 40.070312 55.660156 40.757812 55.222656 41.238281 C 57.171875 41.53125 58.894531 42.515625 60.59375 43.433594 C 62.292969 44.519531 64.121094 45.480469 65.546875 46.945312 C 66.28125 47.820312 67.648438 48.53125 67.4375 49.847656 C 67.082031 50.140625 66.722656 49.847656 66.386719 49.703125 C 64.476562 51.25 63.070312 53.296875 61.476562 55.132812 C 59.042969 57.765625 57.089844 60.839844 55.789062 64.160156 C 54.757812 66.125 54.109375 68.277344 53.855469 70.492188 C 53.855469 70.492188 53.648438 71.328125 53.457031 72.6875 C 55.703125 72.851562 57.277344 73.292969 57.425781 73.332031 C 58.011719 73.5 58.347656 74.105469 58.160156 74.691406 C 57.992188 75.277344 57.382812 75.613281 56.796875 75.421875 C 56.753906 75.402344 55.304688 75.003906 53.25 74.859375 C 53.207031 75.652344 53.207031 76.511719 53.25 77.429688 C 54.570312 77.21875 55.472656 77.199219 55.597656 77.199219 C 55.597656 77.199219 55.621094 77.199219 55.621094 77.199219 C 56.230469 77.199219 56.710938 77.679688 56.710938 78.285156 C 56.710938 78.890625 56.230469 79.394531 55.640625 79.394531 C 55.597656 79.394531 54.757812 79.414062 53.480469 79.625 C 53.625 80.648438 53.855469 81.691406 54.191406 82.714844 C 55.746094 81.753906 56.984375 81.316406 57.109375 81.273438 C 57.675781 81.066406 58.304688 81.378906 58.515625 81.941406 C 58.726562 82.507812 58.410156 83.132812 57.84375 83.34375 C 57.824219 83.34375 56.542969 83.800781 55.03125 84.804688 C 56.628906 88.128906 59.566406 91.113281 64.730469 92.621094 C 64.730469 92.621094 64.75 92.621094 64.75 92.621094 C 65.042969 92.703125 65.339844 92.785156 65.652344 92.871094 C 67.792969 93.621094 69.957031 94.332031 72.136719 94.917969 C 73 95.148438 73.902344 95.398438 74.804688 95.292969 C 75.351562 95.191406 76.945312 95.191406 76.652344 95.585938 C 76.191406 96.570312 75.015625 96.796875 74.046875 96.796875 C 71.363281 96.988281 68.820312 95.960938 66.261719 95.378906 C 65.441406 97.84375 64.289062 100.226562 63.617188 102.753906 C 62.859375 104.65625 62.609375 106.703125 62.023438 108.644531 C 61.433594 110.945312 61.160156 113.285156 61.140625 115.644531 C 61.097656 117.671875 61.203125 119.804688 62.210938 121.601562 C 63.007812 123.648438 64.351562 125.527344 66.199219 126.71875 C 68.820312 128.140625 71.71875 129.394531 74.78125 129.183594 C 73.984375 128.683594 73.609375 127.785156 73.125 127.03125 C 71.929688 125.195312 71.257812 123.105469 70.460938 121.078125 C 70.4375 120.597656 70.753906 119.65625 71.402344 119.929688 C 71.96875 120.074219 72.242188 120.640625 72.453125 121.121094 C 73.542969 123.628906 74.804688 126.132812 76.671875 128.160156 C 77.785156 129.351562 79.253906 129.9375 80.808594 130.355469 C 80.808594 130.355469 86.074219 132.488281 87.753906 129.917969 C 87.921875 129.664062 88.007812 129.375 88.046875 129.019531 C 89.078125 125.488281 89.078125 121.703125 89.308594 118.046875 C 89.558594 117.273438 90.820312 117.210938 90.882812 118.132812 C 91.261719 120.871094 91.027344 123.816406 91.761719 126.636719 C 92.265625 128.539062 93.925781 129.9375 95.898438 130.042969 C 95.898438 130.042969 95.917969 130.042969 95.917969 130.042969 C 95.917969 130.042969 96.464844 130.144531 97.851562 129.832031 C 99.78125 130.042969 101.878906 129.726562 103.453125 128.496094 C 106.730469 126.425781 108.050781 122.476562 108.511719 118.84375 C 108.574219 118.089844 109.773438 117.753906 110.003906 118.570312 C 110.085938 121.515625 109.351562 124.421875 108.367188 127.179688 C 108.21875 127.597656 107.863281 127.890625 107.589844 128.246094 C 108.535156 127.722656 109.605469 127.554688 110.589844 127.160156 C 112.691406 126.324219 114.746094 125.171875 116.238281 123.4375 C 117.726562 122.101562 118.1875 120.035156 118.1875 118.109375 C 118.1875 113.199219 116.929688 108.375 115.480469 103.714844 C 114.558594 100.390625 113.363281 97.152344 112.082031 93.9375 C 109.582031 94.875 107.148438 95.960938 104.589844 96.734375 C 102.949219 97.195312 101.039062 97.570312 99.507812 96.589844 C 99.003906 96.109375 98.417969 94.855469 100.347656 95 C 101.082031 95.566406 102.046875 95.378906 102.867188 95.167969 C 106.855469 94.039062 110.570312 92.140625 114.328125 90.46875 C 115.921875 89.632812 117.453125 88.710938 118.921875 87.6875 C 120.058594 86.875 120.917969 85.746094 121.902344 84.761719 C 122.09375 84.449219 122.261719 84.117188 122.429688 83.78125 C 120.960938 83.089844 119.828125 82.800781 119.785156 82.800781 C 119.195312 82.652344 118.820312 82.066406 118.964844 81.484375 C 119.113281 80.898438 119.699219 80.523438 120.289062 80.667969 C 120.414062 80.6875 121.652344 80.980469 123.246094 81.734375 C 123.269531 81.691406 123.269531 81.648438 123.289062 81.628906 C 123.582031 80.898438 123.710938 79.851562 123.730469 78.621094 C 122.472656 78.558594 121.632812 78.621094 121.589844 78.621094 Z M 77.070312 76.46875 C 76.546875 76.636719 76.210938 77.324219 75.601562 77.429688 C 74.195312 77.847656 73.019531 76.636719 72.601562 75.402344 C 72.011719 73.398438 72.179688 71.054688 73.441406 69.320312 C 73.480469 69.34375 73.585938 69.40625 73.648438 69.425781 C 73.628906 69.363281 73.609375 69.257812 73.609375 69.21875 C 74.824219 68.277344 76.839844 68.96875 77.261719 70.449219 C 77.890625 72.308594 78.058594 74.523438 77.050781 76.28125 C 77.050781 76.320312 77.070312 76.40625 77.070312 76.46875 Z M 98.207031 80.457031 C 98.039062 83.070312 95.648438 85.703125 92.875 85.328125 C 91.574219 85.140625 90.671875 84.117188 89.917969 83.195312 C 89.832031 84.449219 88.34375 85.160156 87.230469 85.347656 C 85.257812 85.453125 83.535156 83.949219 82.78125 82.234375 C 82.550781 81.648438 82.296875 80.917969 82.738281 80.375 C 83.390625 80.082031 84.101562 80.457031 84.480469 81.023438 C 85.257812 82.003906 86.242188 83.28125 87.691406 82.964844 C 88.71875 82.402344 88.804688 81.042969 88.972656 80.019531 C 87.777344 78.808594 87.019531 76.886719 87.777344 75.257812 C 88.574219 74.316406 90.148438 74.839844 90.714844 75.777344 C 91.363281 77.09375 91.28125 78.660156 90.757812 80 C 91.324219 80.898438 91.804688 81.902344 92.6875 82.546875 C 93.359375 83.113281 94.449219 83.113281 95.058594 82.464844 C 95.898438 81.773438 96.148438 80.648438 96.820312 79.832031 C 97.222656 79.308594 98.332031 79.558594 98.207031 80.457031 Z M 105.511719 75.234375 C 104.652344 76.550781 102.238281 76.65625 101.585938 75.089844 C 100.578125 73.332031 100.894531 71.183594 101.523438 69.363281 C 101.777344 68.589844 102.238281 67.816406 103.015625 67.460938 C 104.292969 67.023438 105.59375 68.003906 105.972656 69.195312 C 106.582031 71.117188 106.730469 73.480469 105.511719 75.234375 Z M 105.511719 75.234375 " fill-opacity="1" fill-rule="nonzero"/><path fill="#ddc7ab" d="M 112.125 93.9375 C 112.125 93.9375 109.730469 101.207031 91.300781 102.796875 C 72.875 104.382812 66.242188 95.335938 66.242188 95.335938 C 97.765625 102.734375 112.125 93.9375 112.125 93.9375 Z M 112.125 93.9375 " fill-opacity="1" fill-rule="nonzero"/><path fill="#dba76d" d="M 124.589844 116.375 C 124.046875 115.226562 123.457031 113.953125 122.34375 113.242188 C 121.714844 113.492188 121.066406 113.660156 120.476562 114.015625 C 120.832031 116.105469 120.730469 118.277344 120.226562 120.324219 C 121.695312 120.429688 123.183594 120.429688 124.632812 120.222656 C 125.074219 118.988281 125.199219 117.589844 124.589844 116.375 Z M 135.820312 111.757812 C 134.644531 110.464844 133.15625 109.292969 131.390625 108.9375 C 130.175781 108.792969 128.914062 109.273438 127.992188 110.003906 C 129.375 111.882812 131.078125 113.640625 131.75 115.9375 C 131.980469 116.921875 132.398438 117.921875 132.210938 118.945312 C 133.929688 118.238281 135.527344 117.253906 136.953125 116.085938 C 137.269531 114.539062 136.828125 112.910156 135.820312 111.757812 Z M 88.488281 61.046875 C 89.917969 51.707031 80.871094 45.023438 78.371094 43.371094 C 74.992188 44.5625 71.613281 45.816406 69.011719 48.300781 C 68.253906 48.113281 68.507812 47.046875 68.949219 46.652344 C 70.082031 45.542969 71.738281 44.917969 72.621094 43.644531 C 68.320312 41.554688 63.785156 39.777344 58.976562 39.378906 C 58.011719 39.316406 56.964844 39.191406 56.0625 39.609375 C 55.640625 40.070312 55.640625 40.757812 55.199219 41.238281 C 57.152344 41.53125 58.875 42.515625 60.574219 43.433594 C 62.273438 44.519531 64.101562 45.480469 65.527344 46.945312 C 66.261719 47.820312 67.625 48.53125 67.414062 49.847656 C 67.058594 50.140625 66.703125 49.847656 66.367188 49.703125 C 64.457031 51.25 63.050781 53.296875 61.453125 55.132812 C 59.019531 57.765625 57.066406 60.839844 55.765625 64.160156 C 54.738281 66.125 54.085938 68.277344 53.835938 70.492188 C 53.835938 70.492188 53.625 71.328125 53.4375 72.6875 C 55.683594 72.851562 57.257812 73.292969 57.402344 73.332031 C 57.992188 73.5 58.328125 74.105469 58.140625 74.691406 C 57.972656 75.277344 57.363281 75.613281 56.773438 75.421875 C 56.730469 75.402344 55.285156 75.003906 53.226562 74.859375 C 53.183594 75.652344 53.183594 76.511719 53.226562 77.429688 C 54.550781 77.21875 55.453125 77.199219 55.578125 77.199219 C 55.578125 77.199219 55.597656 77.199219 55.597656 77.199219 C 56.207031 77.199219 56.691406 77.679688 56.691406 78.285156 C 56.691406 78.890625 56.207031 79.394531 55.621094 79.394531 C 55.578125 79.394531 54.738281 79.414062 53.457031 79.625 C 53.605469 80.625 53.835938 81.648438 54.152344 82.671875 C 54.171875 82.695312 54.171875 82.695312 54.191406 82.714844 C 55.726562 81.773438 56.964844 81.335938 57.066406 81.292969 C 57.636719 81.085938 58.265625 81.398438 58.472656 81.964844 C 58.683594 82.527344 58.371094 83.15625 57.804688 83.363281 C 57.78125 83.363281 57.195312 83.59375 56.332031 84.03125 C 59.042969 85.433594 62.316406 86.246094 66.136719 85.640625 C 78.476562 83.675781 86.832031 71.851562 88.488281 61.046875 Z M 77.070312 76.46875 C 76.546875 76.636719 76.210938 77.324219 75.601562 77.429688 C 74.195312 77.847656 73.019531 76.636719 72.601562 75.402344 C 72.011719 73.398438 72.179688 71.054688 73.441406 69.320312 C 73.480469 69.34375 73.585938 69.40625 73.648438 69.425781 C 73.628906 69.363281 73.609375 69.257812 73.609375 69.21875 C 74.824219 68.277344 76.839844 68.96875 77.261719 70.449219 C 77.890625 72.308594 78.058594 74.523438 77.050781 76.28125 C 77.050781 76.320312 77.070312 76.40625 77.070312 76.46875 Z M 62.148438 113.910156 C 62.460938 118.589844 62.945312 123.417969 66.199219 126.699219 C 64.351562 125.488281 62.988281 123.605469 62.210938 121.578125 C 61.203125 119.761719 61.121094 117.652344 61.140625 115.625 C 61.160156 113.261719 61.433594 110.902344 62.023438 108.625 C 62.609375 106.683594 62.859375 104.632812 63.617188 102.734375 C 63.847656 101.855469 64.140625 101 64.457031 100.140625 C 64.519531 101.4375 64.898438 103.316406 66.261719 105.367188 C 68.71875 109.023438 61.832031 109.25 62.148438 113.910156 Z M 89.035156 122.601562 C 88.886719 124.753906 88.636719 126.90625 88.046875 128.976562 C 88.007812 129.332031 87.921875 129.644531 87.753906 129.875 C 86.074219 132.445312 80.808594 130.3125 80.808594 130.3125 C 79.273438 129.917969 77.785156 129.3125 76.671875 128.121094 C 75.246094 126.574219 74.175781 124.734375 73.25 122.832031 C 73.25 122.832031 77.34375 129.5625 82.484375 127.972656 C 86.726562 126.679688 88.53125 123.628906 89.035156 122.601562 Z M 73.503906 127.660156 C 73.839844 128.222656 74.195312 128.808594 74.78125 129.164062 C 74.636719 129.164062 74.511719 129.183594 74.363281 129.183594 C 73.945312 128.703125 73.648438 128.203125 73.503906 127.660156 Z M 103.476562 128.515625 C 101.902344 129.75 99.800781 130.0625 97.871094 129.855469 C 96.464844 130.144531 95.941406 130.0625 95.941406 130.0625 C 95.941406 130.0625 95.917969 130.0625 95.917969 130.0625 C 93.945312 129.9375 92.289062 128.558594 91.785156 126.65625 C 91.425781 125.320312 91.300781 123.984375 91.21875 122.625 C 91.21875 122.625 93.402344 128.308594 99.171875 126.71875 C 104.945312 125.152344 107.421875 123.480469 107.421875 123.480469 C 106.601562 125.488281 105.363281 127.324219 103.476562 128.515625 Z M 107.820312 128.015625 C 107.800781 128.058594 107.800781 128.121094 107.777344 128.160156 C 107.738281 128.183594 107.671875 128.203125 107.632812 128.246094 C 107.695312 128.160156 107.757812 128.097656 107.820312 128.015625 Z M 118 114.351562 C 117.957031 114.140625 117.011719 109.148438 115.019531 106.160156 C 112.984375 103.109375 106.519531 106.640625 110.214844 103.003906 C 113.90625 99.367188 112.125 93.957031 112.125 93.957031 C 113.402344 97.152344 114.601562 100.390625 115.523438 103.734375 C 116.59375 107.183594 117.582031 110.734375 118 114.351562 Z M 118 114.351562 " fill-opacity="1" fill-rule="nonzero"/><g clip-path="url(#49cb05efd4)"><g clip-path="url(#a56dddba5a)"><g clip-path="url(#504eddbc76)"><path fill="#000000" d="M 82.882812 17.605469 C 83.1875 16.464844 82.636719 15.234375 81.53125 14.714844 C 80.285156 14.132812 78.800781 14.667969 78.21875 15.914062 C 77.976562 16.433594 77.800781 17.664062 78.078125 19.328125 C 78.726562 23.214844 81.289062 31.164062 81.773438 32.855469 C 82.15625 34.179688 83.539062 34.941406 84.859375 34.558594 C 86.179688 34.175781 86.941406 32.796875 86.5625 31.476562 C 86.042969 29.6875 82.992188 20.472656 82.882812 17.605469 Z M 82.882812 17.605469 " fill-opacity="1" fill-rule="evenodd"/></g></g></g><g clip-path="url(#beeccde64c)"><g clip-path="url(#1d5d3f78d4)"><g clip-path="url(#8cd7662437)"><path fill="#180303" d="M 94.132812 29.191406 C 94.132812 29.054688 94.132812 27.304688 94.332031 25.933594 C 95.011719 21.25 96.835938 14.539062 97.453125 12.539062 C 97.859375 11.226562 97.121094 9.832031 95.804688 9.425781 C 94.492188 9.023438 93.097656 9.761719 92.691406 11.074219 C 92.039062 13.1875 90.117188 20.273438 89.402344 25.21875 C 89.011719 27.898438 89.097656 30.078125 89.515625 31.058594 C 90.054688 32.320312 91.519531 32.910156 92.785156 32.371094 C 94.019531 31.84375 94.609375 30.433594 94.132812 29.191406 Z M 94.132812 29.191406 " fill-opacity="1" fill-rule="evenodd"/></g></g></g><g clip-path="url(#65d0f0bb60)"><g clip-path="url(#ceb2393960)"><g clip-path="url(#304f5461e9)"><path fill="#000000" d="M 100.996094 32.804688 L 101.054688 32.730469 C 102.433594 31.050781 109.480469 23.253906 110.1875 22.492188 C 111.121094 21.480469 111.0625 19.90625 110.050781 18.96875 C 109.042969 18.035156 107.464844 18.097656 106.53125 19.109375 C 105.808594 19.886719 98.613281 27.851562 97.203125 29.570312 C 96.253906 30.730469 96.417969 31.777344 96.4375 31.886719 C 96.667969 33.242188 97.953125 34.15625 99.308594 33.925781 C 100.03125 33.804688 100.632812 33.378906 100.996094 32.804688 Z M 100.996094 32.804688 " fill-opacity="1" fill-rule="evenodd"/></g></g></g><g fill="#000000" fill-opacity="1"><g transform="translate(32.527689, 165.97419)"><g><path d="M 7.21875 -15.5625 C 8.28125 -17.175781 9.5625 -17.984375 11.0625 -17.984375 C 13.375 -17.984375 15.097656 -16.992188 16.234375 -15.015625 C 16.484375 -15.359375 16.785156 -15.71875 17.140625 -16.09375 C 17.492188 -16.46875 18.054688 -16.875 18.828125 -17.3125 C 19.597656 -17.757812 20.394531 -17.984375 21.21875 -17.984375 C 23.03125 -17.984375 24.546875 -17.28125 25.765625 -15.875 C 26.992188 -14.476562 27.609375 -12.171875 27.609375 -8.953125 L 27.609375 -3 C 27.609375 -2.476562 27.59375 -2.085938 27.5625 -1.828125 C 27.53125 -1.566406 27.421875 -1.265625 27.234375 -0.921875 C 26.941406 -0.304688 26.066406 0 24.609375 0 C 23.179688 0 22.3125 -0.316406 22 -0.953125 C 21.832031 -1.296875 21.734375 -1.597656 21.703125 -1.859375 C 21.671875 -2.117188 21.65625 -2.507812 21.65625 -3.03125 L 21.65625 -8.984375 C 21.65625 -10.960938 20.953125 -11.953125 19.546875 -11.953125 C 18.742188 -11.953125 18.203125 -11.691406 17.921875 -11.171875 C 17.640625 -10.648438 17.5 -9.910156 17.5 -8.953125 L 17.5 -3 C 17.5 -2.445312 17.476562 -2.046875 17.4375 -1.796875 C 17.40625 -1.554688 17.300781 -1.265625 17.125 -0.921875 C 16.8125 -0.304688 15.925781 0 14.46875 0 C 13.039062 0 12.164062 -0.316406 11.84375 -0.953125 C 11.6875 -1.296875 11.59375 -1.597656 11.5625 -1.859375 C 11.53125 -2.117188 11.515625 -2.507812 11.515625 -3.03125 L 11.515625 -8.984375 C 11.515625 -10.960938 10.804688 -11.953125 9.390625 -11.953125 C 8.035156 -11.953125 7.359375 -10.960938 7.359375 -8.984375 L 7.359375 -2.96875 C 7.359375 -2.4375 7.335938 -2.039062 7.296875 -1.78125 C 7.265625 -1.519531 7.160156 -1.222656 6.984375 -0.890625 C 6.640625 -0.296875 5.753906 0 4.328125 0 C 2.890625 0 2.015625 -0.304688 1.703125 -0.921875 C 1.546875 -1.265625 1.445312 -1.554688 1.40625 -1.796875 C 1.375 -2.046875 1.359375 -2.445312 1.359375 -3 L 1.359375 -14.984375 C 1.359375 -15.503906 1.375 -15.894531 1.40625 -16.15625 C 1.445312 -16.414062 1.554688 -16.707031 1.734375 -17.03125 C 2.078125 -17.632812 2.882812 -17.9375 4.15625 -17.9375 C 5.425781 -17.9375 6.253906 -17.734375 6.640625 -17.328125 C 7.023438 -16.921875 7.21875 -16.332031 7.21875 -15.5625 Z M 7.21875 -15.5625 "/></g></g></g><g fill="#000000" fill-opacity="1"><g transform="translate(61.490907, 165.97419)"><g><path d="M 9.328125 -0.0625 C 7.035156 -0.0625 5.132812 -0.929688 3.625 -2.671875 C 2.113281 -4.410156 1.359375 -6.523438 1.359375 -9.015625 L 1.359375 -14.984375 C 1.359375 -15.523438 1.375 -15.921875 1.40625 -16.171875 C 1.445312 -16.421875 1.546875 -16.71875 1.703125 -17.0625 C 2.015625 -17.675781 2.898438 -17.984375 4.359375 -17.984375 C 5.941406 -17.984375 6.875 -17.550781 7.15625 -16.6875 C 7.289062 -16.320312 7.359375 -15.742188 7.359375 -14.953125 L 7.359375 -8.984375 C 7.359375 -8.054688 7.625 -7.332031 8.15625 -6.8125 C 8.6875 -6.289062 9.398438 -6.03125 10.296875 -6.03125 C 11.191406 -6.03125 11.914062 -6.300781 12.46875 -6.84375 C 13.03125 -7.382812 13.3125 -8.097656 13.3125 -8.984375 L 13.3125 -15.015625 C 13.3125 -15.535156 13.328125 -15.925781 13.359375 -16.1875 C 13.398438 -16.445312 13.507812 -16.75 13.6875 -17.09375 C 13.976562 -17.6875 14.851562 -17.984375 16.3125 -17.984375 C 17.738281 -17.984375 18.613281 -17.675781 18.9375 -17.0625 C 19.09375 -16.71875 19.1875 -16.414062 19.21875 -16.15625 C 19.25 -15.894531 19.265625 -15.503906 19.265625 -14.984375 L 19.265625 -2.921875 C 19.265625 -2.421875 19.25 -2.039062 19.21875 -1.78125 C 19.1875 -1.519531 19.078125 -1.234375 18.890625 -0.921875 C 18.554688 -0.328125 17.6875 -0.03125 16.28125 -0.03125 C 14.894531 -0.03125 14.039062 -0.300781 13.71875 -0.84375 C 13.488281 -1.238281 13.375 -1.707031 13.375 -2.25 C 13.289062 -2.09375 13.085938 -1.863281 12.765625 -1.5625 C 12.453125 -1.269531 12.144531 -1.019531 11.84375 -0.8125 C 11.070312 -0.3125 10.234375 -0.0625 9.328125 -0.0625 Z M 9.328125 -0.0625 "/></g></g></g><g fill="#000000" fill-opacity="1"><g transform="translate(82.115711, 165.97419)"><g><path d="M 1.359375 -14.953125 C 1.359375 -15.472656 1.375 -15.863281 1.40625 -16.125 C 1.445312 -16.382812 1.546875 -16.6875 1.703125 -17.03125 C 2.015625 -17.613281 2.898438 -17.90625 4.359375 -17.90625 C 5.453125 -17.90625 6.222656 -17.710938 6.671875 -17.328125 C 7.054688 -17.015625 7.257812 -16.523438 7.28125 -15.859375 C 7.300781 -15.640625 7.3125 -15.3125 7.3125 -14.875 L 7.3125 -2.96875 C 7.3125 -2.4375 7.296875 -2.039062 7.265625 -1.78125 C 7.234375 -1.519531 7.128906 -1.222656 6.953125 -0.890625 C 6.648438 -0.296875 5.773438 0 4.328125 0 C 2.890625 0 2.015625 -0.304688 1.703125 -0.921875 C 1.546875 -1.265625 1.445312 -1.554688 1.40625 -1.796875 C 1.375 -2.046875 1.359375 -2.445312 1.359375 -3 Z M 6.953125 -21.25 C 6.785156 -20.925781 6.484375 -20.695312 6.046875 -20.5625 C 5.617188 -20.425781 5.046875 -20.359375 4.328125 -20.359375 C 3.617188 -20.359375 3.046875 -20.425781 2.609375 -20.5625 C 2.179688 -20.695312 1.882812 -20.9375 1.71875 -21.28125 C 1.550781 -21.625 1.445312 -21.925781 1.40625 -22.1875 C 1.375 -22.445312 1.359375 -22.835938 1.359375 -23.359375 C 1.359375 -23.878906 1.375 -24.269531 1.40625 -24.53125 C 1.445312 -24.789062 1.546875 -25.082031 1.703125 -25.40625 C 2.015625 -26.007812 2.898438 -26.3125 4.359375 -26.3125 C 5.785156 -26.3125 6.648438 -26.007812 6.953125 -25.40625 C 7.128906 -25.0625 7.234375 -24.757812 7.265625 -24.5 C 7.296875 -24.238281 7.3125 -23.84375 7.3125 -23.3125 C 7.3125 -22.789062 7.296875 -22.398438 7.265625 -22.140625 C 7.234375 -21.878906 7.128906 -21.582031 6.953125 -21.25 Z M 6.953125 -21.25 "/></g></g></g><g fill="#000000" fill-opacity="1"><g transform="translate(90.794465, 165.97419)"><g><path d="M 10.3125 -6 L 16.140625 -6 C 17.046875 -6 17.695312 -5.882812 18.09375 -5.65625 C 18.488281 -5.425781 18.753906 -5.09375 18.890625 -4.65625 C 19.023438 -4.226562 19.09375 -3.660156 19.09375 -2.953125 C 19.09375 -2.253906 19.023438 -1.6875 18.890625 -1.25 C 18.753906 -0.820312 18.515625 -0.523438 18.171875 -0.359375 C 17.835938 -0.191406 17.539062 -0.0859375 17.28125 -0.046875 C 17.019531 -0.015625 16.628906 0 16.109375 0 L 3.8125 0 C 3.019531 0 2.328125 -0.289062 1.734375 -0.875 C 1.140625 -1.46875 0.84375 -2.171875 0.84375 -2.984375 C 0.84375 -3.804688 1.140625 -4.503906 1.734375 -5.078125 C 2.328125 -5.660156 3.234375 -6.5 4.453125 -7.59375 C 5.679688 -8.6875 6.796875 -9.664062 7.796875 -10.53125 C 8.796875 -11.40625 9.34375 -11.890625 9.4375 -11.984375 L 4.625 -11.984375 C 3.332031 -11.984375 2.515625 -12.195312 2.171875 -12.625 C 1.785156 -13.125 1.59375 -13.78125 1.59375 -14.59375 C 1.59375 -15.414062 1.648438 -16.023438 1.765625 -16.421875 C 1.878906 -16.828125 2.015625 -17.125 2.171875 -17.3125 C 2.335938 -17.507812 2.566406 -17.660156 2.859375 -17.765625 C 3.242188 -17.878906 3.832031 -17.9375 4.625 -17.9375 L 15.703125 -17.9375 C 16.492188 -17.9375 17.179688 -17.648438 17.765625 -17.078125 C 18.359375 -16.515625 18.65625 -15.804688 18.65625 -14.953125 C 18.65625 -14.109375 18.3125 -13.359375 17.625 -12.703125 C 16.945312 -12.046875 14.507812 -9.8125 10.3125 -6 Z M 10.3125 -6 "/></g></g></g><g fill="#000000" fill-opacity="1"><g transform="translate(110.738579, 165.97419)"><g><path d="M 10.3125 -6 L 16.140625 -6 C 17.046875 -6 17.695312 -5.882812 18.09375 -5.65625 C 18.488281 -5.425781 18.753906 -5.09375 18.890625 -4.65625 C 19.023438 -4.226562 19.09375 -3.660156 19.09375 -2.953125 C 19.09375 -2.253906 19.023438 -1.6875 18.890625 -1.25 C 18.753906 -0.820312 18.515625 -0.523438 18.171875 -0.359375 C 17.835938 -0.191406 17.539062 -0.0859375 17.28125 -0.046875 C 17.019531 -0.015625 16.628906 0 16.109375 0 L 3.8125 0 C 3.019531 0 2.328125 -0.289062 1.734375 -0.875 C 1.140625 -1.46875 0.84375 -2.171875 0.84375 -2.984375 C 0.84375 -3.804688 1.140625 -4.503906 1.734375 -5.078125 C 2.328125 -5.660156 3.234375 -6.5 4.453125 -7.59375 C 5.679688 -8.6875 6.796875 -9.664062 7.796875 -10.53125 C 8.796875 -11.40625 9.34375 -11.890625 9.4375 -11.984375 L 4.625 -11.984375 C 3.332031 -11.984375 2.515625 -12.195312 2.171875 -12.625 C 1.785156 -13.125 1.59375 -13.78125 1.59375 -14.59375 C 1.59375 -15.414062 1.648438 -16.023438 1.765625 -16.421875 C 1.878906 -16.828125 2.015625 -17.125 2.171875 -17.3125 C 2.335938 -17.507812 2.566406 -17.660156 2.859375 -17.765625 C 3.242188 -17.878906 3.832031 -17.9375 4.625 -17.9375 L 15.703125 -17.9375 C 16.492188 -17.9375 17.179688 -17.648438 17.765625 -17.078125 C 18.359375 -16.515625 18.65625 -15.804688 18.65625 -14.953125 C 18.65625 -14.109375 18.3125 -13.359375 17.625 -12.703125 C 16.945312 -12.046875 14.507812 -9.8125 10.3125 -6 Z M 10.3125 -6 "/></g></g></g><g fill="#000000" fill-opacity="1"><g transform="translate(130.682693, 165.97419)"><g><path d="M 13 -16.03125 C 13.132812 -17.300781 14.035156 -17.9375 15.703125 -17.9375 C 16.585938 -17.9375 17.242188 -17.867188 17.671875 -17.734375 C 18.097656 -17.597656 18.394531 -17.359375 18.5625 -17.015625 C 18.738281 -16.679688 18.84375 -16.382812 18.875 -16.125 C 18.914062 -15.863281 18.9375 -15.472656 18.9375 -14.953125 L 18.9375 -3.03125 C 18.9375 -2.507812 18.914062 -2.117188 18.875 -1.859375 C 18.84375 -1.597656 18.75 -1.296875 18.59375 -0.953125 C 18.269531 -0.359375 17.488281 -0.0625 16.25 -0.0625 C 15.019531 -0.0625 14.191406 -0.210938 13.765625 -0.515625 C 13.347656 -0.828125 13.109375 -1.28125 13.046875 -1.875 C 12.203125 -0.664062 10.796875 -0.0625 8.828125 -0.0625 C 6.867188 -0.0625 5.046875 -0.957031 3.359375 -2.75 C 1.679688 -4.550781 0.84375 -6.632812 0.84375 -9 C 0.84375 -11.375 1.6875 -13.453125 3.375 -15.234375 C 5.070312 -17.015625 6.929688 -17.90625 8.953125 -17.90625 C 9.722656 -17.90625 10.425781 -17.769531 11.0625 -17.5 C 11.695312 -17.226562 12.140625 -16.972656 12.390625 -16.734375 C 12.640625 -16.492188 12.84375 -16.257812 13 -16.03125 Z M 6.8125 -8.953125 C 6.8125 -8.203125 7.101562 -7.523438 7.6875 -6.921875 C 8.28125 -6.328125 8.992188 -6.03125 9.828125 -6.03125 C 10.671875 -6.03125 11.367188 -6.332031 11.921875 -6.9375 C 12.484375 -7.550781 12.765625 -8.226562 12.765625 -8.96875 C 12.765625 -9.707031 12.5 -10.394531 11.96875 -11.03125 C 11.4375 -11.664062 10.722656 -11.984375 9.828125 -11.984375 C 8.929688 -11.984375 8.203125 -11.664062 7.640625 -11.03125 C 7.085938 -10.394531 6.8125 -9.703125 6.8125 -8.953125 Z M 6.8125 -8.953125 "/></g></g></g><g clip-path="url(#63a183dd2d)"><path fill="#f6e5cb" d="M 79.042969 133.273438 L 91.75 133.273438 L 91.75 147.171875 L 79.042969 147.171875 Z M 79.042969 133.273438 " fill-opacity="1" fill-rule="nonzero"/></g><g clip-path="url(#6621bf6848)"><g clip-path="url(#9dfa3a3013)"><g clip-path="url(#5a24510c1b)"><path fill="#000000" d="M 84.035156 140.949219 C 84.125 140.617188 83.964844 140.257812 83.644531 140.105469 C 83.28125 139.9375 82.851562 140.09375 82.679688 140.457031 C 82.609375 140.605469 82.558594 140.964844 82.640625 141.449219 C 82.828125 142.578125 83.574219 144.890625 83.714844 145.382812 C 83.824219 145.765625 84.226562 145.988281 84.613281 145.878906 C 84.996094 145.765625 85.21875 145.363281 85.105469 144.980469 C 84.957031 144.460938 84.070312 141.78125 84.035156 140.949219 Z M 84.035156 140.949219 " fill-opacity="1" fill-rule="evenodd"/></g></g></g><g clip-path="url(#966ba05a29)"><g clip-path="url(#d1203d74ba)"><g clip-path="url(#d8ed89b1b7)"><path fill="#180303" d="M 87.308594 144.316406 C 87.308594 144.277344 87.308594 143.769531 87.367188 143.371094 C 87.5625 142.007812 88.09375 140.054688 88.273438 139.472656 C 88.390625 139.09375 88.175781 138.6875 87.796875 138.570312 C 87.414062 138.453125 87.007812 138.664062 86.890625 139.046875 C 86.699219 139.664062 86.140625 141.722656 85.933594 143.160156 C 85.820312 143.941406 85.84375 144.574219 85.964844 144.859375 C 86.121094 145.226562 86.546875 145.398438 86.917969 145.242188 C 87.273438 145.085938 87.445312 144.675781 87.308594 144.316406 Z M 87.308594 144.316406 " fill-opacity="1" fill-rule="evenodd"/></g></g></g><g clip-path="url(#271023cf24)"><g clip-path="url(#34be0d3629)"><g clip-path="url(#c9b7fe1d6c)"><path fill="#000000" d="M 89.304688 145.367188 L 89.320312 145.34375 C 89.722656 144.855469 91.769531 142.589844 91.976562 142.367188 C 92.25 142.074219 92.230469 141.617188 91.9375 141.34375 C 91.644531 141.074219 91.183594 141.089844 90.914062 141.382812 C 90.703125 141.609375 88.609375 143.925781 88.199219 144.425781 C 87.925781 144.765625 87.972656 145.066406 87.980469 145.101562 C 88.046875 145.496094 88.417969 145.761719 88.8125 145.691406 C 89.023438 145.65625 89.199219 145.535156 89.304688 145.367188 Z M 89.304688 145.367188 " fill-opacity="1" fill-rule="evenodd"/></g></g></g></svg>