<svg xmlns="http://www.w3.org/2000/svg" xmlns:xlink="http://www.w3.org/1999/xlink" width="1024" zoomAndPan="magnify" viewBox="0 0 768 767.999994" height="1024" preserveAspectRatio="xMidYMid meet" version="1.0"><defs><g/><clipPath id="c0ae807cd5"><path d="M 323.652344 457.1875 L 384 457.1875 L 384 523.242188 L 323.652344 523.242188 Z M 323.652344 457.1875 " clip-rule="nonzero"/></clipPath><clipPath id="b2df0c7f5f"><path d="M 340 489 L 353 489 L 353 518 L 340 518 Z M 340 489 " clip-rule="nonzero"/></clipPath><clipPath id="8ea2a2b18c"><path d="M 327.996094 501.675781 L 355.316406 469.777344 L 389.871094 499.375 L 362.550781 531.269531 Z M 327.996094 501.675781 " clip-rule="nonzero"/></clipPath><clipPath id="29f9c68e8b"><path d="M 327.996094 501.675781 L 355.316406 469.777344 L 389.871094 499.375 L 362.550781 531.269531 Z M 327.996094 501.675781 " clip-rule="nonzero"/></clipPath><clipPath id="34be53c636"><path d="M 356 482 L 368 482 L 368 515 L 356 515 Z M 356 482 " clip-rule="nonzero"/></clipPath><clipPath id="4bee0da9ff"><path d="M 327.996094 501.675781 L 355.316406 469.777344 L 389.871094 499.375 L 362.550781 531.269531 Z M 327.996094 501.675781 " clip-rule="nonzero"/></clipPath><clipPath id="eb84eccb09"><path d="M 327.996094 501.675781 L 355.316406 469.777344 L 389.871094 499.375 L 362.550781 531.269531 Z M 327.996094 501.675781 " clip-rule="nonzero"/></clipPath><clipPath id="c2b4158fb9"><path d="M 366 494 L 386 494 L 386 517 L 366 517 Z M 366 494 " clip-rule="nonzero"/></clipPath><clipPath id="13be7ff5d1"><path d="M 327.996094 501.675781 L 355.316406 469.777344 L 389.871094 499.375 L 362.550781 531.269531 Z M 327.996094 501.675781 " clip-rule="nonzero"/></clipPath><clipPath id="7b173e0987"><path d="M 327.996094 501.675781 L 355.316406 469.777344 L 389.871094 499.375 L 362.550781 531.269531 Z M 327.996094 501.675781 " clip-rule="nonzero"/></clipPath><clipPath id="a12a9284a0"><path d="M 238 173 L 529.542969 173 L 529.542969 468.984375 L 238 468.984375 Z M 238 173 " clip-rule="nonzero"/></clipPath><clipPath id="66e752f35a"><path d="M 344 126 L 370 126 L 370 186 L 344 186 Z M 344 126 " clip-rule="nonzero"/></clipPath><clipPath id="e17214ee5c"><path d="M 317.9375 152.707031 L 375.582031 85.402344 L 449.449219 148.667969 L 391.808594 215.972656 Z M 317.9375 152.707031 " clip-rule="nonzero"/></clipPath><clipPath id="03b6240e51"><path d="M 317.9375 152.707031 L 375.582031 85.402344 L 449.449219 148.667969 L 391.808594 215.972656 Z M 317.9375 152.707031 " clip-rule="nonzero"/></clipPath><clipPath id="52d5d2678e"><path d="M 376 111 L 401 111 L 401 180 L 376 180 Z M 376 111 " clip-rule="nonzero"/></clipPath><clipPath id="a05f4f7035"><path d="M 317.9375 152.707031 L 375.582031 85.402344 L 449.449219 148.667969 L 391.808594 215.972656 Z M 317.9375 152.707031 " clip-rule="nonzero"/></clipPath><clipPath id="b1eb814a69"><path d="M 317.9375 152.707031 L 375.582031 85.402344 L 449.449219 148.667969 L 391.808594 215.972656 Z M 317.9375 152.707031 " clip-rule="nonzero"/></clipPath><clipPath id="4982210264"><path d="M 397 137 L 440 137 L 440 184 L 397 184 Z M 397 137 " clip-rule="nonzero"/></clipPath><clipPath id="d534ce2a5d"><path d="M 317.9375 152.707031 L 375.582031 85.402344 L 449.449219 148.667969 L 391.808594 215.972656 Z M 317.9375 152.707031 " clip-rule="nonzero"/></clipPath><clipPath id="1e5b5c0c60"><path d="M 317.9375 152.707031 L 375.582031 85.402344 L 449.449219 148.667969 L 391.808594 215.972656 Z M 317.9375 152.707031 " clip-rule="nonzero"/></clipPath></defs><rect x="-76.8" width="921.6" fill="#ffffff" y="-76.799999" height="921.599993" fill-opacity="1"/><rect x="-76.8" width="921.6" fill="#f6e5cb" y="-76.799999" height="921.599993" fill-opacity="1"/><g fill="#000000" fill-opacity="1"><g transform="translate(102.726446, 612.501674)"><g><path d="M 34.28125 -73.890625 C 39.34375 -81.546875 45.429688 -85.375 52.546875 -85.375 C 63.546875 -85.375 71.738281 -80.679688 77.125 -71.296875 C 78.3125 -72.921875 79.738281 -74.617188 81.40625 -76.390625 C 83.082031 -78.171875 85.75 -80.113281 89.40625 -82.21875 C 93.070312 -84.320312 96.847656 -85.375 100.734375 -85.375 C 109.359375 -85.375 116.578125 -82.054688 122.390625 -75.421875 C 128.210938 -68.796875 131.125 -57.832031 131.125 -42.53125 L 131.125 -14.234375 C 131.125 -11.753906 131.039062 -9.894531 130.875 -8.65625 C 130.71875 -7.414062 130.207031 -5.984375 129.34375 -4.359375 C 127.945312 -1.453125 123.800781 0 116.90625 0 C 110.113281 0 105.960938 -1.507812 104.453125 -4.53125 C 103.691406 -6.144531 103.226562 -7.570312 103.0625 -8.8125 C 102.90625 -10.050781 102.828125 -11.910156 102.828125 -14.390625 L 102.828125 -42.6875 C 102.828125 -52.0625 99.488281 -56.75 92.8125 -56.75 C 89.039062 -56.75 86.476562 -55.507812 85.125 -53.03125 C 83.78125 -50.550781 83.109375 -47.050781 83.109375 -42.53125 L 83.109375 -14.234375 C 83.109375 -11.640625 83.023438 -9.75 82.859375 -8.5625 C 82.703125 -7.382812 82.191406 -5.984375 81.328125 -4.359375 C 79.816406 -1.453125 75.613281 0 68.71875 0 C 61.925781 0 57.773438 -1.507812 56.265625 -4.53125 C 55.515625 -6.144531 55.054688 -7.570312 54.890625 -8.8125 C 54.734375 -10.050781 54.65625 -11.910156 54.65625 -14.390625 L 54.65625 -42.6875 C 54.65625 -52.0625 51.3125 -56.75 44.625 -56.75 C 38.15625 -56.75 34.921875 -52.0625 34.921875 -42.6875 L 34.921875 -14.0625 C 34.921875 -11.582031 34.835938 -9.722656 34.671875 -8.484375 C 34.515625 -7.242188 34.003906 -5.816406 33.140625 -4.203125 C 31.523438 -1.398438 27.320312 0 20.53125 0 C 13.738281 0 9.585938 -1.453125 8.078125 -4.359375 C 7.328125 -5.984375 6.867188 -7.382812 6.703125 -8.5625 C 6.546875 -9.75 6.46875 -11.640625 6.46875 -14.234375 L 6.46875 -71.140625 C 6.46875 -73.617188 6.546875 -75.476562 6.703125 -76.71875 C 6.867188 -77.957031 7.382812 -79.332031 8.25 -80.84375 C 9.863281 -83.75 13.6875 -85.203125 19.71875 -85.203125 C 25.757812 -85.203125 29.695312 -84.234375 31.53125 -82.296875 C 33.363281 -80.359375 34.28125 -77.554688 34.28125 -73.890625 Z M 34.28125 -73.890625 "/></g></g></g><g fill="#000000" fill-opacity="1"><g transform="translate(240.28548, 612.501674)"><g><path d="M 44.296875 -0.328125 C 33.410156 -0.328125 24.382812 -4.445312 17.21875 -12.6875 C 10.050781 -20.9375 6.46875 -30.988281 6.46875 -42.84375 L 6.46875 -71.140625 C 6.46875 -73.722656 6.546875 -75.609375 6.703125 -76.796875 C 6.867188 -77.984375 7.328125 -79.382812 8.078125 -81 C 9.585938 -83.914062 13.796875 -85.375 20.703125 -85.375 C 28.242188 -85.375 32.660156 -83.328125 33.953125 -79.234375 C 34.597656 -77.503906 34.921875 -74.753906 34.921875 -70.984375 L 34.921875 -42.6875 C 34.921875 -38.269531 36.1875 -34.820312 38.71875 -32.34375 C 41.257812 -29.863281 44.65625 -28.625 48.90625 -28.625 C 53.164062 -28.625 56.613281 -29.914062 59.25 -32.5 C 61.894531 -35.082031 63.21875 -38.476562 63.21875 -42.6875 L 63.21875 -71.296875 C 63.21875 -73.773438 63.296875 -75.632812 63.453125 -76.875 C 63.617188 -78.113281 64.132812 -79.546875 65 -81.171875 C 66.394531 -83.972656 70.546875 -85.375 77.453125 -85.375 C 84.242188 -85.375 88.390625 -83.914062 89.890625 -81 C 90.648438 -79.382812 91.109375 -77.957031 91.265625 -76.71875 C 91.429688 -75.476562 91.515625 -73.617188 91.515625 -71.140625 L 91.515625 -13.90625 C 91.515625 -11.53125 91.429688 -9.722656 91.265625 -8.484375 C 91.109375 -7.242188 90.597656 -5.867188 89.734375 -4.359375 C 88.117188 -1.554688 83.96875 -0.15625 77.28125 -0.15625 C 70.707031 -0.15625 66.664062 -1.453125 65.15625 -4.046875 C 64.082031 -5.878906 63.546875 -8.085938 63.546875 -10.671875 C 63.109375 -9.921875 62.132812 -8.84375 60.625 -7.4375 C 59.125 -6.03125 57.671875 -4.84375 56.265625 -3.875 C 52.597656 -1.507812 48.609375 -0.328125 44.296875 -0.328125 Z M 44.296875 -0.328125 "/></g></g></g><g fill="#000000" fill-opacity="1"><g transform="translate(338.241724, 612.501674)"><g><path d="M 6.46875 -70.984375 C 6.46875 -73.460938 6.546875 -75.320312 6.703125 -76.5625 C 6.867188 -77.800781 7.328125 -79.226562 8.078125 -80.84375 C 9.585938 -83.644531 13.796875 -85.046875 20.703125 -85.046875 C 25.867188 -85.046875 29.53125 -84.128906 31.6875 -82.296875 C 33.519531 -80.785156 34.488281 -78.46875 34.59375 -75.34375 C 34.707031 -74.269531 34.765625 -72.707031 34.765625 -70.65625 L 34.765625 -14.0625 C 34.765625 -11.582031 34.679688 -9.722656 34.515625 -8.484375 C 34.359375 -7.242188 33.847656 -5.816406 32.984375 -4.203125 C 31.578125 -1.398438 27.425781 0 20.53125 0 C 13.738281 0 9.585938 -1.453125 8.078125 -4.359375 C 7.328125 -5.984375 6.867188 -7.382812 6.703125 -8.5625 C 6.546875 -9.75 6.46875 -11.640625 6.46875 -14.234375 Z M 33.0625 -100.96875 C 32.257812 -99.40625 30.832031 -98.300781 28.78125 -97.65625 C 26.726562 -97.007812 24.003906 -96.6875 20.609375 -96.6875 C 17.210938 -96.6875 14.488281 -97.007812 12.4375 -97.65625 C 10.394531 -98.300781 8.96875 -99.429688 8.15625 -101.046875 C 7.351562 -102.671875 6.867188 -104.101562 6.703125 -105.34375 C 6.546875 -106.582031 6.46875 -108.441406 6.46875 -110.921875 C 6.46875 -113.398438 6.546875 -115.257812 6.703125 -116.5 C 6.867188 -117.738281 7.328125 -119.113281 8.078125 -120.625 C 9.585938 -123.53125 13.796875 -124.984375 20.703125 -124.984375 C 27.484375 -124.984375 31.578125 -123.53125 32.984375 -120.625 C 33.847656 -119 34.359375 -117.566406 34.515625 -116.328125 C 34.679688 -115.085938 34.765625 -113.226562 34.765625 -110.75 C 34.765625 -108.269531 34.679688 -106.410156 34.515625 -105.171875 C 34.359375 -103.929688 33.875 -102.53125 33.0625 -100.96875 Z M 33.0625 -100.96875 "/></g></g></g><g fill="#000000" fill-opacity="1"><g transform="translate(379.460935, 612.501674)"><g><path d="M 48.984375 -28.453125 L 76.640625 -28.453125 C 80.953125 -28.453125 84.050781 -27.910156 85.9375 -26.828125 C 87.820312 -25.753906 89.085938 -24.191406 89.734375 -22.140625 C 90.378906 -20.097656 90.703125 -17.40625 90.703125 -14.0625 C 90.703125 -10.71875 90.378906 -8.019531 89.734375 -5.96875 C 89.085938 -3.925781 87.957031 -2.5 86.34375 -1.6875 C 84.726562 -0.882812 83.300781 -0.398438 82.0625 -0.234375 C 80.820312 -0.078125 78.960938 0 76.484375 0 L 18.109375 0 C 14.335938 0 11.050781 -1.398438 8.25 -4.203125 C 5.445312 -7.003906 4.046875 -10.34375 4.046875 -14.21875 C 4.046875 -18.101562 5.445312 -21.421875 8.25 -24.171875 C 11.050781 -26.921875 15.359375 -30.878906 21.171875 -36.046875 C 26.992188 -41.222656 32.273438 -45.882812 37.015625 -50.03125 C 41.765625 -54.1875 44.351562 -56.476562 44.78125 -56.90625 L 21.984375 -56.90625 C 15.835938 -56.90625 11.957031 -57.929688 10.34375 -59.984375 C 8.507812 -62.359375 7.59375 -65.484375 7.59375 -69.359375 C 7.59375 -73.242188 7.863281 -76.128906 8.40625 -78.015625 C 8.945312 -79.898438 9.59375 -81.300781 10.34375 -82.21875 C 11.101562 -83.132812 12.179688 -83.863281 13.578125 -84.40625 C 15.410156 -84.9375 18.210938 -85.203125 21.984375 -85.203125 L 74.53125 -85.203125 C 78.3125 -85.203125 81.601562 -83.851562 84.40625 -81.15625 C 87.207031 -78.46875 88.609375 -75.101562 88.609375 -71.0625 C 88.609375 -67.019531 86.988281 -63.4375 83.75 -60.3125 C 80.519531 -57.1875 68.929688 -46.566406 48.984375 -28.453125 Z M 48.984375 -28.453125 "/></g></g></g><g fill="#000000" fill-opacity="1"><g transform="translate(474.184285, 612.501674)"><g><path d="M 48.984375 -28.453125 L 76.640625 -28.453125 C 80.953125 -28.453125 84.050781 -27.910156 85.9375 -26.828125 C 87.820312 -25.753906 89.085938 -24.191406 89.734375 -22.140625 C 90.378906 -20.097656 90.703125 -17.40625 90.703125 -14.0625 C 90.703125 -10.71875 90.378906 -8.019531 89.734375 -5.96875 C 89.085938 -3.925781 87.957031 -2.5 86.34375 -1.6875 C 84.726562 -0.882812 83.300781 -0.398438 82.0625 -0.234375 C 80.820312 -0.078125 78.960938 0 76.484375 0 L 18.109375 0 C 14.335938 0 11.050781 -1.398438 8.25 -4.203125 C 5.445312 -7.003906 4.046875 -10.34375 4.046875 -14.21875 C 4.046875 -18.101562 5.445312 -21.421875 8.25 -24.171875 C 11.050781 -26.921875 15.359375 -30.878906 21.171875 -36.046875 C 26.992188 -41.222656 32.273438 -45.882812 37.015625 -50.03125 C 41.765625 -54.1875 44.351562 -56.476562 44.78125 -56.90625 L 21.984375 -56.90625 C 15.835938 -56.90625 11.957031 -57.929688 10.34375 -59.984375 C 8.507812 -62.359375 7.59375 -65.484375 7.59375 -69.359375 C 7.59375 -73.242188 7.863281 -76.128906 8.40625 -78.015625 C 8.945312 -79.898438 9.59375 -81.300781 10.34375 -82.21875 C 11.101562 -83.132812 12.179688 -83.863281 13.578125 -84.40625 C 15.410156 -84.9375 18.210938 -85.203125 21.984375 -85.203125 L 74.53125 -85.203125 C 78.3125 -85.203125 81.601562 -83.851562 84.40625 -81.15625 C 87.207031 -78.46875 88.609375 -75.101562 88.609375 -71.0625 C 88.609375 -67.019531 86.988281 -63.4375 83.75 -60.3125 C 80.519531 -57.1875 68.929688 -46.566406 48.984375 -28.453125 Z M 48.984375 -28.453125 "/></g></g></g><g fill="#000000" fill-opacity="1"><g transform="translate(568.907635, 612.501674)"><g><path d="M 61.765625 -76.15625 C 62.410156 -82.1875 66.664062 -85.203125 74.53125 -85.203125 C 78.738281 -85.203125 81.863281 -84.878906 83.90625 -84.234375 C 85.957031 -83.585938 87.382812 -82.457031 88.1875 -80.84375 C 89 -79.226562 89.484375 -77.800781 89.640625 -76.5625 C 89.804688 -75.320312 89.890625 -73.460938 89.890625 -70.984375 L 89.890625 -14.390625 C 89.890625 -11.910156 89.804688 -10.050781 89.640625 -8.8125 C 89.484375 -7.570312 89.03125 -6.144531 88.28125 -4.53125 C 86.769531 -1.726562 83.078125 -0.328125 77.203125 -0.328125 C 71.328125 -0.328125 67.390625 -1.050781 65.390625 -2.5 C 63.398438 -3.957031 62.242188 -6.085938 61.921875 -8.890625 C 57.929688 -3.179688 51.273438 -0.328125 41.953125 -0.328125 C 32.628906 -0.328125 23.976562 -4.582031 16 -13.09375 C 8.03125 -21.613281 4.046875 -31.503906 4.046875 -42.765625 C 4.046875 -54.023438 8.0625 -63.882812 16.09375 -72.34375 C 24.125 -80.8125 32.9375 -85.046875 42.53125 -85.046875 C 46.1875 -85.046875 49.523438 -84.398438 52.546875 -83.109375 C 55.566406 -81.816406 57.671875 -80.601562 58.859375 -79.46875 C 60.046875 -78.332031 61.015625 -77.226562 61.765625 -76.15625 Z M 32.34375 -42.515625 C 32.34375 -38.960938 33.742188 -35.757812 36.546875 -32.90625 C 39.347656 -30.050781 42.738281 -28.625 46.71875 -28.625 C 50.707031 -28.625 54.023438 -30.078125 56.671875 -32.984375 C 59.316406 -35.890625 60.640625 -39.09375 60.640625 -42.59375 C 60.640625 -46.101562 59.367188 -49.363281 56.828125 -52.375 C 54.296875 -55.394531 50.898438 -56.90625 46.640625 -56.90625 C 42.390625 -56.90625 38.941406 -55.394531 36.296875 -52.375 C 33.660156 -49.363281 32.34375 -46.078125 32.34375 -42.515625 Z M 32.34375 -42.515625 "/></g></g></g><g clip-path="url(#c0ae807cd5)"><path fill="#f6e5cb" d="M 323.652344 457.1875 L 384 457.1875 L 384 523.191406 L 323.652344 523.191406 Z M 323.652344 457.1875 " fill-opacity="1" fill-rule="nonzero"/></g><g clip-path="url(#b2df0c7f5f)"><g clip-path="url(#8ea2a2b18c)"><g clip-path="url(#29f9c68e8b)"><path fill="#000000" d="M 347.367188 493.636719 C 347.785156 492.0625 347.03125 490.363281 345.5 489.644531 C 343.78125 488.839844 341.730469 489.582031 340.925781 491.300781 C 340.589844 492.019531 340.347656 493.71875 340.730469 496.019531 C 341.625 501.382812 345.164062 512.363281 345.835938 514.699219 C 346.363281 516.523438 348.273438 517.578125 350.097656 517.050781 C 351.921875 516.523438 352.972656 514.617188 352.449219 512.792969 C 351.734375 510.320312 347.519531 497.597656 347.367188 493.636719 Z M 347.367188 493.636719 " fill-opacity="1" fill-rule="evenodd"/></g></g></g><g clip-path="url(#34be53c636)"><g clip-path="url(#4bee0da9ff)"><g clip-path="url(#eb84eccb09)"><path fill="#180303" d="M 362.902344 509.636719 C 362.902344 509.449219 362.902344 507.035156 363.179688 505.140625 C 364.117188 498.671875 366.640625 489.40625 367.488281 486.644531 C 368.050781 484.828125 367.03125 482.902344 365.214844 482.34375 C 363.402344 481.785156 361.472656 482.800781 360.914062 484.617188 C 360.015625 487.535156 357.359375 497.320312 356.371094 504.152344 C 355.832031 507.851562 355.949219 510.863281 356.527344 512.214844 C 357.273438 513.960938 359.296875 514.777344 361.042969 514.027344 C 362.746094 513.300781 363.5625 511.355469 362.902344 509.636719 Z M 362.902344 509.636719 " fill-opacity="1" fill-rule="evenodd"/></g></g></g><g clip-path="url(#c2b4158fb9)"><g clip-path="url(#13be7ff5d1)"><g clip-path="url(#7b173e0987)"><path fill="#000000" d="M 372.382812 514.628906 L 372.464844 514.523438 C 374.367188 512.203125 384.101562 501.441406 385.078125 500.386719 C 386.367188 498.992188 386.285156 496.8125 384.890625 495.523438 C 383.496094 494.234375 381.316406 494.320312 380.03125 495.710938 C 379.03125 496.789062 369.09375 507.789062 367.144531 510.160156 C 365.832031 511.765625 366.0625 513.210938 366.085938 513.363281 C 366.40625 515.234375 368.183594 516.496094 370.054688 516.175781 C 371.050781 516.007812 371.878906 515.421875 372.382812 514.628906 Z M 372.382812 514.628906 " fill-opacity="1" fill-rule="evenodd"/></g></g></g><g clip-path="url(#a12a9284a0)"><path fill="#180303" d="M 528.941406 403.871094 C 527.917969 411.75 523.289062 418.667969 517.453125 423.902344 C 511.554688 428.714844 504.9375 432.808594 497.660156 435.09375 C 490.742188 437.679688 483.339844 438.402344 476.121094 439.304688 C 471.667969 439.546875 467.15625 440.027344 462.765625 439.125 C 456.148438 448.75 445.5 454.648438 434.730469 458.558594 C 429.496094 460.242188 424.382812 462.167969 419.148438 463.730469 C 411.390625 466.859375 402.964844 467.28125 394.722656 467.21875 C 389.609375 467.160156 384.257812 466.136719 379.984375 463.308594 C 377.457031 465.835938 373.488281 466.316406 370.117188 467.402344 C 364.886719 468.964844 359.351562 468.242188 354.175781 467.039062 C 346.957031 465.835938 339.859375 464.03125 332.699219 462.46875 C 323.796875 461.023438 314.832031 459.039062 306.832031 454.828125 C 300.574219 451.335938 296.242188 445.382812 292.691406 439.304688 C 287.699219 430.703125 287.699219 420.414062 288.960938 410.910156 C 291.007812 392.921875 296.601562 375.414062 304.242188 359.046875 C 296.300781 356.882812 288.84375 352.851562 282.707031 347.316406 C 282.105469 346.65625 281.382812 345.933594 280.480469 345.210938 C 278.132812 342.863281 276.027344 340.277344 274.222656 337.511719 C 273.5 336.246094 272.898438 334.921875 272.296875 333.539062 C 268.75 336.789062 265.378906 341.058594 263.753906 346.535156 C 263.335938 347.917969 262.070312 348.761719 260.746094 348.761719 C 260.445312 348.761719 260.144531 348.699219 259.84375 348.640625 C 258.160156 348.160156 257.257812 346.414062 257.738281 344.730469 C 260.085938 336.910156 265.078125 331.132812 270.074219 327.101562 C 269.050781 323.3125 268.386719 319.402344 267.964844 315.671875 C 260.207031 317.71875 250.28125 321.988281 243.902344 331.011719 C 243.300781 331.914062 242.339844 332.335938 241.316406 332.335938 C 240.714844 332.335938 240.050781 332.15625 239.511719 331.796875 C 238.066406 330.773438 237.765625 328.847656 238.730469 327.402344 C 246.488281 316.273438 258.523438 311.398438 267.425781 309.234375 C 267.246094 306.046875 267.246094 303.15625 267.304688 300.691406 C 259.90625 300.871094 251.121094 302.554688 243.722656 308.273438 C 243.121094 308.691406 242.457031 308.933594 241.796875 308.933594 C 240.835938 308.933594 239.933594 308.511719 239.332031 307.730469 C 238.246094 306.347656 238.546875 304.359375 239.871094 303.339844 C 248.777344 296.480469 259.125 294.554688 267.664062 294.433594 C 267.726562 294.011719 267.726562 293.832031 267.726562 293.832031 C 269.167969 285.710938 271.214844 277.648438 274.101562 269.886719 C 272.417969 265.917969 272.359375 261.585938 271.9375 257.375 C 271.515625 251.359375 271.035156 245.402344 270.554688 239.386719 C 270.132812 227.953125 268.085938 216.222656 271.335938 205.03125 C 273.261719 197.390625 280.300781 191.796875 288.058594 191.015625 C 299.191406 189.8125 310.019531 194.023438 319.945312 198.59375 C 325 201.0625 329.570312 204.492188 333.84375 208.039062 C 334.324219 208.761719 335.164062 208.101562 335.707031 207.859375 C 346.65625 202.144531 381.128906 187.464844 387.023438 187.226562 C 389.371094 187.164062 391.65625 188.910156 391.714844 191.316406 C 392.199219 195.226562 388.949219 198.113281 386.664062 200.882812 C 389.910156 201.722656 393.402344 202.324219 396.710938 201.84375 C 411.027344 192.757812 424.925781 182.773438 440.628906 176.035156 C 445.742188 174.289062 451.335938 172.90625 456.75 174.109375 C 462.523438 175.433594 465.171875 181.390625 466.917969 186.382812 C 469.5625 196.488281 471.367188 206.835938 471.550781 217.304688 C 472.511719 227.953125 471.488281 238.601562 472.210938 249.253906 C 472.210938 255.027344 474.4375 260.503906 475.28125 266.21875 C 476.121094 271.152344 478.167969 275.785156 478.828125 280.777344 C 479.070312 282.160156 479.671875 286.011719 480.273438 291.003906 C 488.273438 290.582031 497.71875 291.726562 506.441406 297.019531 C 507.945312 297.921875 508.367188 299.847656 507.464844 301.351562 C 506.863281 302.316406 505.839844 302.855469 504.757812 302.855469 C 504.214844 302.855469 503.613281 302.738281 503.132812 302.375 C 495.914062 297.984375 487.851562 296.960938 480.933594 297.261719 C 481.234375 300.148438 481.476562 303.15625 481.597656 306.164062 C 490.441406 307.609375 501.808594 311.339844 510.113281 320.84375 C 511.253906 322.167969 511.136719 324.15625 509.8125 325.296875 C 509.210938 325.839844 508.488281 326.078125 507.765625 326.078125 C 506.863281 326.078125 506.019531 325.71875 505.417969 324.996094 C 498.742188 317.355469 489.417969 314.046875 481.777344 312.664062 C 481.777344 317.355469 481.476562 321.6875 480.695312 325.058594 C 485.566406 328.484375 490.320312 333.359375 493.207031 340.097656 C 493.867188 341.722656 493.148438 343.527344 491.523438 344.25 C 491.101562 344.429688 490.679688 344.488281 490.320312 344.488281 C 489.117188 344.488281 487.914062 343.765625 487.433594 342.5625 C 485.328125 337.511719 481.714844 333.660156 477.988281 330.890625 C 476.300781 333.179688 474.4375 335.34375 472.511719 337.449219 C 464.992188 344.488281 455.667969 349.242188 446.34375 353.210938 C 447.605469 354.417969 448.386719 355.921875 449.109375 357.484375 C 454.945312 370.359375 458.796875 384.074219 462.40625 397.734375 C 463.367188 401.523438 464.75 405.3125 465.113281 409.222656 C 469.324219 406.996094 473.957031 405.492188 478.226562 403.386719 C 475.761719 399.417969 475.761719 394.484375 476.722656 390.09375 C 478.589844 381.910156 484.183594 374.871094 491.34375 370.660156 C 497.597656 367.410156 505.058594 367.472656 511.617188 369.757812 C 522.503906 372.945312 529.183594 384.4375 529.121094 395.445312 C 529.121094 398.09375 529.542969 401.042969 528.941406 403.871094 Z M 528.941406 403.871094 " fill-opacity="1" fill-rule="nonzero"/></g><path fill="#e08989" d="M 431.785156 204.671875 C 429.679688 207.019531 427.390625 209.183594 425.527344 211.769531 C 442.3125 217.96875 457.171875 229.941406 465.59375 245.882812 C 465.171875 243.835938 466.136719 241.730469 466.136719 239.6875 C 467.039062 234.753906 466.316406 229.757812 466.4375 224.828125 C 465.835938 213.457031 465.171875 202.023438 462.585938 190.894531 C 451.515625 187.765625 437.015625 199.679688 431.785156 204.671875 Z M 277.171875 221.214844 C 278.253906 234.511719 278.976562 247.808594 279.9375 261.042969 C 282.464844 255.507812 286.316406 250.394531 290.105469 245.523438 C 295.640625 239.144531 300.875 232.46875 307.070312 226.691406 C 298.105469 218.992188 288.601562 211.53125 277.59375 206.957031 C 276.871094 211.652344 276.929688 216.464844 277.171875 221.214844 Z M 277.171875 221.214844 " fill-opacity="1" fill-rule="nonzero"/><path fill="#f6e5cb" d="M 494.53125 428.777344 C 494.46875 419.570312 488.9375 411.390625 481.898438 405.855469 C 480.152344 407.660156 477.804688 408.382812 475.398438 408.921875 C 478.46875 413.015625 481.476562 417.285156 482.738281 422.277344 C 483.703125 425.105469 484.183594 428.414062 482.800781 431.242188 C 486.890625 431.242188 490.679688 429.617188 494.53125 428.777344 Z M 515.046875 379.324219 C 511.917969 376.253906 507.222656 376.496094 503.132812 376.015625 C 495.132812 375.230469 487.550781 380.105469 483.339844 386.664062 C 480.933594 390.09375 479.792969 394.90625 481.65625 398.816406 C 486.53125 397.3125 491.34375 393.703125 496.757812 394.964844 C 506.5625 396.769531 515.164062 404.652344 517.269531 414.519531 C 519.257812 409.765625 522.144531 405.074219 522.203125 399.71875 C 522.746094 392.4375 521.242188 384.015625 515.046875 379.324219 Z M 468.542969 311.640625 C 466.796875 311.820312 465.292969 310.496094 465.113281 308.8125 C 464.933594 307.066406 466.195312 305.5625 467.941406 305.382812 C 468.242188 305.324219 470.765625 305.144531 474.558594 305.324219 C 474.378906 302.976562 474.136719 300.511719 473.835938 297.984375 C 468 299.007812 464.03125 300.632812 463.96875 300.691406 C 462.34375 301.351562 460.539062 300.570312 459.878906 299.007812 C 459.214844 297.382812 459.9375 295.578125 461.5625 294.914062 C 461.984375 294.734375 466.4375 292.929688 472.992188 291.785156 C 471.851562 284.445312 470.347656 277.167969 469.144531 271.753906 C 468.542969 268.746094 467.878906 265.738281 467.039062 262.730469 C 467.039062 262.667969 467.039062 262.609375 467.039062 262.609375 C 465.59375 257.613281 463.730469 252.800781 461.320312 248.230469 C 456.628906 239.566406 450.914062 231.203125 442.914062 225.1875 C 436.777344 221.15625 430.460938 216.886719 423.179688 215.441406 C 421.917969 215.261719 420.292969 214.960938 419.933594 213.457031 C 419.03125 211.410156 421.136719 209.964844 422.519531 208.882812 C 433.589844 197.03125 442.191406 191.4375 446.945312 188.910156 C 449.351562 187.644531 451.996094 186.863281 454.703125 186.5625 C 456.75 186.382812 459.335938 186.203125 461.441406 186.441406 C 460.601562 183.734375 458.253906 181.691406 455.488281 181.269531 C 454.886719 181.207031 454.285156 181.089844 453.683594 181.027344 C 444.417969 181.390625 436.414062 186.625 428.777344 191.375 C 421.796875 195.347656 415.359375 200.097656 408.800781 204.671875 C 410.125 205.273438 412.050781 206.175781 413.675781 207.257812 C 415.238281 208.28125 414.214844 210.6875 412.410156 210.328125 C 392.980469 206.355469 396.109375 208.160156 386.242188 206.835938 C 383.777344 206.71875 381.25 206.898438 378.902344 205.996094 C 376.375 204.972656 375.773438 201.0625 377.820312 199.316406 C 379.144531 197.632812 381.910156 197.511719 382.992188 195.769531 C 372.945312 197.753906 364.285156 203.710938 354.539062 206.535156 C 341.964844 211.53125 327.945312 214.660156 317.898438 224.34375 C 315.734375 223.804688 316.457031 220.734375 317.71875 219.59375 C 320.96875 216.402344 325.71875 214.597656 328.246094 210.929688 C 315.914062 204.914062 302.917969 199.796875 289.144531 198.65625 C 286.375 198.476562 283.367188 198.113281 280.78125 199.316406 C 279.578125 200.640625 279.578125 202.625 278.3125 204.011719 C 283.910156 204.851562 288.84375 207.679688 293.714844 210.328125 C 298.589844 213.457031 303.820312 216.222656 307.914062 220.433594 C 310.019531 222.960938 313.929688 225.007812 313.328125 228.796875 C 312.304688 229.640625 311.28125 228.796875 310.320312 228.375 C 304.84375 232.828125 300.8125 238.722656 296.242188 244.019531 C 289.261719 251.597656 283.667969 260.441406 279.9375 270.007812 C 276.992188 275.664062 275.125 281.859375 274.402344 288.238281 C 274.402344 288.238281 273.800781 290.644531 273.261719 294.554688 C 279.699219 295.035156 284.210938 296.300781 284.632812 296.417969 C 286.316406 296.902344 287.277344 298.644531 286.738281 300.328125 C 286.253906 302.015625 284.511719 302.976562 282.828125 302.4375 C 282.707031 302.375 278.554688 301.234375 272.660156 300.8125 C 272.539062 303.097656 272.539062 305.5625 272.660156 308.210938 C 276.449219 307.609375 279.035156 307.550781 279.398438 307.550781 C 279.398438 307.550781 279.457031 307.550781 279.457031 307.550781 C 281.203125 307.550781 282.585938 308.933594 282.585938 310.679688 C 282.585938 312.421875 281.203125 313.867188 279.515625 313.867188 C 279.398438 313.867188 276.992188 313.925781 273.320312 314.527344 C 273.742188 317.476562 274.402344 320.484375 275.367188 323.433594 C 279.816406 320.664062 283.367188 319.402344 283.730469 319.28125 C 285.351562 318.679688 287.15625 319.582031 287.757812 321.207031 C 288.359375 322.832031 287.457031 324.636719 285.835938 325.238281 C 285.773438 325.238281 282.105469 326.5625 277.773438 329.449219 C 282.34375 339.015625 290.765625 347.617188 305.566406 351.949219 C 305.566406 351.949219 305.628906 351.949219 305.628906 351.949219 C 306.46875 352.191406 307.3125 352.429688 308.214844 352.671875 C 314.351562 354.835938 320.546875 356.882812 326.804688 358.566406 C 329.269531 359.230469 331.855469 359.949219 334.445312 359.648438 C 336.007812 359.347656 340.582031 359.347656 339.738281 360.492188 C 338.414062 363.320312 335.046875 363.980469 332.277344 363.980469 C 324.578125 364.523438 317.296875 361.574219 309.957031 359.890625 C 307.613281 366.988281 304.304688 373.847656 302.378906 381.128906 C 300.210938 386.601562 299.492188 392.5 297.804688 398.09375 C 296.121094 404.710938 295.339844 411.449219 295.28125 418.25 C 295.160156 424.085938 295.460938 430.21875 298.347656 435.394531 C 300.632812 441.289062 304.484375 446.707031 309.777344 450.132812 C 317.296875 454.226562 325.601562 457.835938 334.382812 457.234375 C 332.097656 455.789062 331.015625 453.203125 329.632812 451.035156 C 326.203125 445.742188 324.277344 439.726562 321.992188 433.890625 C 321.929688 432.507812 322.832031 429.800781 324.699219 430.582031 C 326.320312 431.003906 327.105469 432.628906 327.707031 434.011719 C 330.835938 441.230469 334.445312 448.449219 339.796875 454.285156 C 342.988281 457.714844 347.199219 459.398438 351.648438 460.601562 C 351.648438 460.601562 366.75 466.738281 371.5625 459.339844 C 372.042969 458.617188 372.285156 457.773438 372.40625 456.753906 C 375.351562 446.585938 375.351562 435.695312 376.015625 425.167969 C 376.738281 422.941406 380.347656 422.761719 380.527344 425.40625 C 381.609375 433.289062 380.949219 441.773438 383.054688 449.894531 C 384.496094 455.367188 389.25 459.398438 394.90625 459.699219 C 394.90625 459.699219 394.964844 459.699219 394.964844 459.699219 C 394.964844 459.699219 396.53125 460 400.5 459.097656 C 406.035156 459.699219 412.050781 458.796875 416.5625 455.25 C 425.949219 449.292969 429.738281 437.921875 431.0625 427.453125 C 431.242188 425.289062 434.671875 424.324219 435.332031 426.671875 C 435.574219 435.152344 433.46875 443.515625 430.640625 451.457031 C 430.21875 452.660156 429.195312 453.503906 428.414062 454.527344 C 431.121094 453.023438 434.191406 452.539062 437.015625 451.398438 C 443.035156 448.992188 448.929688 445.683594 453.199219 440.6875 C 457.472656 436.839844 458.796875 430.882812 458.796875 425.347656 C 458.796875 411.210938 455.1875 397.3125 451.035156 383.894531 C 448.386719 374.328125 444.957031 365.003906 441.289062 355.738281 C 434.128906 358.445312 427.152344 361.574219 419.8125 363.800781 C 415.117188 365.125 409.644531 366.207031 405.253906 363.378906 C 403.808594 361.996094 402.125 358.386719 407.660156 358.808594 C 409.765625 360.433594 412.53125 359.890625 414.878906 359.289062 C 426.308594 356.039062 436.957031 350.566406 447.726562 345.753906 C 452.296875 343.347656 456.691406 340.699219 460.902344 337.75 C 464.148438 335.40625 466.617188 332.15625 469.445312 329.328125 C 469.984375 328.425781 470.464844 327.464844 470.949219 326.5 C 466.738281 324.515625 463.488281 323.671875 463.367188 323.671875 C 461.683594 323.253906 460.601562 321.566406 461.019531 319.882812 C 461.441406 318.199219 463.128906 317.117188 464.8125 317.535156 C 465.171875 317.597656 468.722656 318.4375 473.292969 320.605469 C 473.355469 320.484375 473.355469 320.363281 473.414062 320.304688 C 474.257812 318.199219 474.617188 315.191406 474.679688 311.640625 C 471.066406 311.460938 468.660156 311.640625 468.542969 311.640625 Z M 340.941406 305.445312 C 339.4375 305.925781 338.476562 307.910156 336.730469 308.210938 C 332.699219 309.414062 329.332031 305.925781 328.128906 302.375 C 326.441406 296.601562 326.925781 289.863281 330.535156 284.867188 C 330.652344 284.929688 330.953125 285.109375 331.136719 285.167969 C 331.074219 284.988281 331.015625 284.6875 331.015625 284.566406 C 334.503906 281.859375 340.28125 283.84375 341.484375 288.117188 C 343.289062 293.472656 343.769531 299.847656 340.882812 304.902344 C 340.882812 305.023438 340.941406 305.261719 340.941406 305.445312 Z M 401.523438 316.933594 C 401.042969 324.457031 394.183594 332.035156 386.242188 330.953125 C 382.511719 330.410156 379.925781 327.464844 377.757812 324.816406 C 377.519531 328.425781 373.246094 330.472656 370.058594 331.011719 C 364.402344 331.3125 359.46875 326.980469 357.304688 322.046875 C 356.644531 320.363281 355.921875 318.257812 357.183594 316.695312 C 359.050781 315.851562 361.09375 316.933594 362.179688 318.558594 C 364.402344 321.386719 367.230469 325.058594 371.382812 324.15625 C 374.332031 322.53125 374.570312 318.621094 375.050781 315.671875 C 371.621094 312.183594 369.457031 306.648438 371.621094 301.953125 C 373.910156 299.246094 378.421875 300.75 380.046875 303.457031 C 381.910156 307.25 381.667969 311.761719 380.164062 315.609375 C 381.789062 318.199219 383.171875 321.085938 385.699219 322.949219 C 387.625 324.574219 390.753906 324.574219 392.5 322.710938 C 394.90625 320.726562 395.628906 317.476562 397.550781 315.128906 C 398.695312 313.625 401.882812 314.347656 401.523438 316.933594 Z M 422.457031 301.894531 C 419.992188 305.683594 413.074219 305.984375 411.207031 301.472656 C 408.320312 296.417969 409.222656 290.222656 411.027344 284.988281 C 411.75 282.761719 413.074219 280.535156 415.300781 279.515625 C 418.96875 278.25 422.699219 281.078125 423.78125 284.507812 C 425.527344 290.042969 425.949219 296.839844 422.457031 301.894531 Z M 422.457031 301.894531 " fill-opacity="1" fill-rule="nonzero"/><path fill="#ddc7ab" d="M 441.410156 355.738281 C 441.410156 355.738281 434.550781 376.675781 381.730469 381.25 C 328.910156 385.820312 309.898438 359.769531 309.898438 359.769531 C 400.257812 381.066406 441.410156 355.738281 441.410156 355.738281 Z M 441.410156 355.738281 " fill-opacity="1" fill-rule="nonzero"/><path fill="#dba76d" d="M 477.144531 420.355469 C 475.582031 417.046875 473.894531 413.375 470.707031 411.328125 C 468.902344 412.050781 467.039062 412.53125 465.351562 413.554688 C 466.375 419.570312 466.074219 425.828125 464.632812 431.726562 C 468.84375 432.027344 473.113281 432.027344 477.265625 431.425781 C 478.527344 427.875 478.890625 423.84375 477.144531 420.355469 Z M 509.332031 407.058594 C 505.960938 403.328125 501.691406 399.960938 496.636719 398.9375 C 493.148438 398.515625 489.539062 399.898438 486.890625 402.003906 C 490.859375 407.417969 495.734375 412.472656 497.660156 419.089844 C 498.320312 421.917969 499.523438 424.804688 498.984375 427.753906 C 503.914062 425.707031 508.488281 422.882812 512.578125 419.511719 C 513.480469 415.058594 512.21875 410.367188 509.332031 407.058594 Z M 373.667969 261.042969 C 377.757812 234.152344 351.832031 214.898438 344.671875 210.148438 C 334.984375 213.574219 325.300781 217.1875 317.839844 224.34375 C 315.675781 223.804688 316.394531 220.734375 317.660156 219.59375 C 320.90625 216.402344 325.660156 214.597656 328.1875 210.929688 C 315.855469 204.914062 302.859375 199.796875 289.082031 198.65625 C 286.316406 198.476562 283.308594 198.113281 280.71875 199.316406 C 279.515625 200.640625 279.515625 202.625 278.253906 204.011719 C 283.847656 204.851562 288.78125 207.679688 293.65625 210.328125 C 298.527344 213.457031 303.761719 216.222656 307.851562 220.433594 C 309.957031 222.960938 313.867188 225.007812 313.265625 228.796875 C 312.246094 229.640625 311.222656 228.796875 310.257812 228.375 C 304.785156 232.828125 300.753906 238.722656 296.183594 244.019531 C 289.203125 251.597656 283.609375 260.441406 279.878906 270.007812 C 276.929688 275.664062 275.066406 281.859375 274.34375 288.238281 C 274.34375 288.238281 273.742188 290.644531 273.199219 294.554688 C 279.636719 295.035156 284.148438 296.300781 284.570312 296.417969 C 286.253906 296.902344 287.21875 298.644531 286.675781 300.328125 C 286.195312 302.015625 284.449219 302.976562 282.765625 302.4375 C 282.644531 302.375 278.496094 301.234375 272.597656 300.8125 C 272.480469 303.097656 272.480469 305.5625 272.597656 308.210938 C 276.390625 307.609375 278.976562 307.550781 279.335938 307.550781 C 279.335938 307.550781 279.398438 307.550781 279.398438 307.550781 C 281.140625 307.550781 282.527344 308.933594 282.527344 310.679688 C 282.527344 312.421875 281.140625 313.867188 279.457031 313.867188 C 279.335938 313.867188 276.929688 313.925781 273.261719 314.527344 C 273.683594 317.417969 274.34375 320.363281 275.246094 323.3125 C 275.304688 323.371094 275.304688 323.371094 275.367188 323.433594 C 279.757812 320.726562 283.308594 319.460938 283.609375 319.339844 C 285.234375 318.738281 287.039062 319.640625 287.640625 321.265625 C 288.242188 322.890625 287.339844 324.695312 285.714844 325.296875 C 285.652344 325.296875 283.96875 325.960938 281.503906 327.222656 C 289.261719 331.253906 298.648438 333.601562 309.597656 331.855469 C 344.972656 326.199219 368.914062 292.148438 373.667969 261.042969 Z M 340.941406 305.445312 C 339.4375 305.925781 338.476562 307.910156 336.730469 308.210938 C 332.699219 309.414062 329.332031 305.925781 328.128906 302.375 C 326.441406 296.601562 326.925781 289.863281 330.535156 284.867188 C 330.652344 284.929688 330.953125 285.109375 331.136719 285.167969 C 331.074219 284.988281 331.015625 284.6875 331.015625 284.566406 C 334.503906 281.859375 340.28125 283.84375 341.484375 288.117188 C 343.289062 293.472656 343.769531 299.847656 340.882812 304.902344 C 340.882812 305.023438 340.941406 305.261719 340.941406 305.445312 Z M 298.167969 413.253906 C 299.070312 426.730469 300.453125 440.628906 309.777344 450.074219 C 304.484375 446.585938 300.574219 441.171875 298.347656 435.335938 C 295.460938 430.101562 295.21875 424.023438 295.28125 418.1875 C 295.339844 411.390625 296.121094 404.589844 297.804688 398.035156 C 299.492188 392.4375 300.210938 386.542969 302.378906 381.066406 C 303.039062 378.542969 303.882812 376.074219 304.785156 373.609375 C 304.964844 377.339844 306.046875 382.753906 309.957031 388.648438 C 316.996094 399.175781 297.265625 399.839844 298.167969 413.253906 Z M 375.234375 438.28125 C 374.8125 444.480469 374.089844 450.675781 372.40625 456.632812 C 372.285156 457.65625 372.042969 458.558594 371.5625 459.21875 C 366.75 466.617188 351.648438 460.480469 351.648438 460.480469 C 347.257812 459.339844 342.988281 457.59375 339.796875 454.164062 C 335.707031 449.714844 332.640625 444.417969 329.992188 438.945312 C 329.992188 438.945312 341.722656 458.316406 356.460938 453.746094 C 368.613281 450.015625 373.789062 441.230469 375.234375 438.28125 Z M 330.714844 452.839844 C 331.675781 454.464844 332.699219 456.152344 334.382812 457.171875 C 333.960938 457.171875 333.601562 457.234375 333.179688 457.234375 C 331.976562 455.851562 331.136719 454.40625 330.714844 452.839844 Z M 416.621094 455.308594 C 412.109375 458.859375 406.09375 459.761719 400.558594 459.160156 C 396.53125 460 395.023438 459.761719 395.023438 459.761719 C 395.023438 459.761719 394.964844 459.761719 394.964844 459.761719 C 389.308594 459.398438 384.558594 455.429688 383.113281 449.953125 C 382.089844 446.105469 381.730469 442.253906 381.488281 438.34375 C 381.488281 438.34375 387.746094 454.707031 404.289062 450.132812 C 420.835938 445.621094 427.933594 440.808594 427.933594 440.808594 C 425.585938 446.585938 422.039062 451.878906 416.621094 455.308594 Z M 429.078125 453.863281 C 429.015625 453.984375 429.015625 454.164062 428.957031 454.285156 C 428.835938 454.347656 428.65625 454.40625 428.535156 454.527344 C 428.714844 454.285156 428.894531 454.105469 429.078125 453.863281 Z M 458.253906 414.519531 C 458.132812 413.917969 455.425781 399.539062 449.710938 390.933594 C 443.875 382.152344 425.347656 392.320312 435.933594 381.851562 C 446.523438 371.382812 441.410156 355.800781 441.410156 355.800781 C 445.078125 365.003906 448.507812 374.328125 451.15625 383.957031 C 454.222656 393.882812 457.050781 404.109375 458.253906 414.519531 Z M 458.253906 414.519531 " fill-opacity="1" fill-rule="nonzero"/><g clip-path="url(#66e752f35a)"><g clip-path="url(#e17214ee5c)"><g clip-path="url(#03b6240e51)"><path fill="#000000" d="M 358.414062 135.910156 C 359.289062 132.613281 357.707031 129.0625 354.511719 127.566406 C 350.921875 125.878906 346.636719 127.433594 344.953125 131.023438 C 344.253906 132.523438 343.742188 136.074219 344.546875 140.882812 C 346.417969 152.09375 353.808594 175.035156 355.21875 179.921875 C 356.316406 183.734375 360.308594 185.933594 364.121094 184.835938 C 367.929688 183.734375 370.128906 179.746094 369.03125 175.933594 C 367.539062 170.769531 358.730469 144.183594 358.414062 135.910156 Z M 358.414062 135.910156 " fill-opacity="1" fill-rule="evenodd"/></g></g></g><g clip-path="url(#52d5d2678e)"><g clip-path="url(#a05f4f7035)"><g clip-path="url(#b1eb814a69)"><path fill="#180303" d="M 390.878906 169.34375 C 390.878906 168.945312 390.882812 163.902344 391.453125 159.945312 C 393.414062 146.425781 398.6875 127.0625 400.464844 121.289062 C 401.636719 117.5 399.503906 113.472656 395.710938 112.304688 C 391.921875 111.136719 387.894531 113.265625 386.726562 117.054688 C 384.84375 123.152344 379.296875 143.601562 377.226562 157.882812 C 376.105469 165.609375 376.347656 171.902344 377.558594 174.730469 C 379.109375 178.378906 383.339844 180.082031 386.992188 178.519531 C 390.554688 177 392.257812 172.929688 390.878906 169.34375 Z M 390.878906 169.34375 " fill-opacity="1" fill-rule="evenodd"/></g></g></g><g clip-path="url(#4982210264)"><g clip-path="url(#d534ce2a5d)"><g clip-path="url(#1e5b5c0c60)"><path fill="#000000" d="M 410.6875 179.769531 L 410.859375 179.554688 C 414.839844 174.707031 435.175781 152.210938 437.21875 150.007812 C 439.914062 147.09375 439.742188 142.542969 436.824219 139.847656 C 433.917969 137.152344 429.363281 137.332031 426.671875 140.242188 C 424.582031 142.496094 403.8125 165.480469 399.742188 170.4375 C 397 173.785156 397.476562 176.804688 397.53125 177.125 C 398.199219 181.039062 401.910156 183.671875 405.824219 183.007812 C 407.910156 182.65625 409.636719 181.433594 410.6875 179.769531 Z M 410.6875 179.769531 " fill-opacity="1" fill-rule="evenodd"/></g></g></g></svg>